<?xml version="1.0" encoding="UTF-8"?>
<svg xmlns="http://www.w3.org/2000/svg" xmlns:xlink="http://www.w3.org/1999/xlink" version="1.2" >
<font id="MitraWeb Regular">
<font-face  font-family="MitraWeb" units-per-em="2048" ascent="1896" descent="-959" font-style="normal" font-weight="400" font-stretch="normal" cap-height="0" x-height="0" underline-position="-75" underline-thickness="50" />
<missing-glyph  horiz-adv-x="1024" d="M102 0 L922 0 L922 1092 L102 1092 L102 0 Z M204 102 L204 990 L820 990 L820 102 L204 102 Z " />
<glyph glyph-name="NULL" d="" />
<glyph glyph-name="CR" unicode="&#xd;" horiz-adv-x="512" d="" />
<glyph glyph-name="space" unicode="&#x20;" horiz-adv-x="500" d="" />
<glyph glyph-name="uni000D" horiz-adv-x="500" d="" />
<glyph glyph-name="exclam" unicode="&#x21;" horiz-adv-x="600" d="M406 1264 L220 1193 C223 880 236 605 260 368 L334 397 C334 640 359 1088 406 1264 L406 1264 Z M189 120 C189 43 231 -2 308 -2 C349 -2 404 53 404 95 C404 175 356 216 284 216 L283 216 C241 216 189 162 189 120 L189 120 Z " />
<glyph glyph-name="parenleft" unicode="&#x28;" horiz-adv-x="572" d="M238 431 C238 674 299 984 431 1202 L355 1202 C201 940 114 700 114 435 C114 170 201 -132 356 -373 L429 -373 C302 -133 238 188 238 431 L238 431 Z " />
<glyph glyph-name="parenright" unicode="&#x29;" horiz-adv-x="572" d="M346 431 C346 188 282 -133 155 -373 L228 -373 C383 -132 470 170 470 435 C470 700 383 940 229 1202 L153 1202 C285 984 346 674 346 431 L346 431 Z " />
<glyph glyph-name="comma" unicode="&#x2c;" horiz-adv-x="433" d="M206 169 C143 169 93 127 93 67 C93 18 125 -23 171 -23 C191 -23 209 -19 224 -11 C239 -3 249 1 254 1 C268 1 276 -17 276 -34 C276 -145 186 -220 93 -252 L93 -288 C180 -259 244 -220 284 -170 C324 -120 345 -68 345 -12 C345 80 289 169 206 169 L206 169 Z " />
<glyph glyph-name="hyphen" unicode="&#x2d;" horiz-adv-x="860" d="M769 396 L769 503 L113 503 L113 396 L769 396 Z " />
<glyph glyph-name="period" unicode="&#x2e;" horiz-adv-x="420" d="M280 194 C227 194 182 149 182 96 C182 43 227 -2 280 -2 C335 -2 378 41 378 96 C378 151 335 194 280 194 L280 194 Z " />
<glyph glyph-name="colon" unicode="&#x3a;" horiz-adv-x="662" d="M456 194 C403 194 358 149 358 96 C358 43 403 -2 456 -2 C511 -2 554 41 554 96 C554 151 511 194 456 194 L456 194 Z M456 722 C403 722 358 677 358 624 C358 571 403 526 456 526 C511 526 554 569 554 624 C554 679 511 722 456 722 L456 722 Z " />
<glyph glyph-name="semicolon" unicode="&#x3b;" horiz-adv-x="481" d="M145 706 C145 654 186 612 238 612 C290 612 331 654 331 706 C331 758 289 799 238 799 C187 799 145 758 145 706 L145 706 Z M234 169 C172 169 120 127 120 67 C120 18 152 -23 198 -23 C218 -23 236 -19 251 -11 C266 -3 277 1 282 1 C296 1 302 -17 302 -34 C302 -145 213 -220 120 -252 L120 -288 C208 -259 272 -220 312 -170 C352 -120 372 -68 372 -12 C372 80 316 169 234 169 L234 169 Z " />
<glyph glyph-name="less" unicode="&#x3c;" horiz-adv-x="1117" d="M955 58 L955 192 L331 489 L955 784 L955 918 L150 534 L150 444 L955 58 Z " />
<glyph glyph-name="equal" unicode="&#x3d;" horiz-adv-x="1043" d="M900 560 L900 682 L154 682 L154 560 L900 560 Z M900 289 L900 411 L154 411 L154 289 L900 289 Z " />
<glyph glyph-name="greater" unicode="&#x3e;" horiz-adv-x="1117" d="M966 444 L966 534 L160 918 L160 784 L786 489 L160 192 L160 58 L966 444 Z " />
<glyph glyph-name="question" unicode="&#x3f;" horiz-adv-x="768" d="M168 796 C209 796 239 827 239 866 C239 884 231 908 214 938 C197 968 188 995 188 1019 C188 1043 202 1067 230 1090 C258 1113 299 1124 351 1124 C468 1124 542 1016 542 890 C542 855 537 821 527 787 C517 753 493 699 454 626 C415 553 390 492 376 446 C362 400 353 342 348 271 L383 271 C388 338 399 391 417 430 C435 469 477 526 544 601 C611 676 654 736 672 779 C690 822 699 869 699 920 C699 971 678 1021 637 1070 C583 1138 504 1172 399 1172 C294 1172 215 1147 160 1098 C105 1049 78 992 78 929 C78 865 113 796 168 796 L168 796 Z M277 72 C277 18 318 -23 372 -23 C425 -23 467 19 467 72 C467 124 425 166 372 166 C319 166 277 124 277 72 L277 72 Z " />
<glyph glyph-name="at" unicode="&#x40;" horiz-adv-x="1594" d="M570 25 C609 25 653 40 704 70 C755 100 821 165 904 266 C894 215 889 173 889 141 C889 65 930 27 1012 27 C1094 27 1169 50 1240 96 C1311 142 1370 215 1416 316 C1462 417 1485 520 1485 624 C1485 728 1460 826 1411 918 C1316 1096 1130 1202 862 1202 C733 1202 606 1166 480 1093 C261 966 83 706 83 382 C83 238 115 108 178 -8 C290 -214 518 -373 819 -373 C990 -373 1142 -326 1276 -230 C1410 -134 1501 -9 1551 146 L1501 146 C1394 -106 1168 -323 844 -323 C710 -323 592 -295 488 -240 C294 -137 161 73 161 360 C161 495 194 628 259 757 C324 886 413 986 524 1055 C635 1124 748 1159 865 1159 C982 1159 1083 1137 1168 1093 C1319 1015 1434 851 1434 635 C1434 442 1335 228 1224 148 C1167 107 1117 86 1075 86 C1034 86 1012 119 1012 163 C1012 188 1038 291 1091 472 L1189 809 L1057 791 L1028 698 C1012 775 964 814 884 814 C832 814 774 791 709 745 C622 680 551 597 498 496 C445 395 419 310 419 239 C419 125 471 25 570 25 L570 25 Z M999 638 C999 591 987 532 962 462 C921 346 837 224 752 165 C716 140 684 128 655 128 C588 128 551 185 551 258 C551 301 571 370 610 466 C649 562 696 638 750 693 C804 748 848 775 884 775 C963 775 999 723 999 638 L999 638 Z " />
<glyph glyph-name="bracketleft" unicode="&#x5b;" horiz-adv-x="646" d="M562 -372 L562 -276 L329 -276 L329 1105 L562 1105 L562 1202 L190 1202 L190 -372 L562 -372 Z " />
<glyph glyph-name="backslash" unicode="&#x5c;" horiz-adv-x="607" d="M583 -378 L179 935 L57 935 L464 -378 L583 -378 Z " />
<glyph glyph-name="bracketright" unicode="&#x5d;" horiz-adv-x="646" d="M211 -276 L211 -372 L583 -372 L583 1202 L211 1202 L211 1105 L444 1105 L444 -276 L211 -276 Z " />
<glyph glyph-name="asciicircum" unicode="&#x5e;" horiz-adv-x="982" d="M894 451 L532 980 L450 980 L86 450 L218 450 L492 862 L763 451 L894 451 Z " />
<glyph glyph-name="underscore" unicode="&#x5f;" horiz-adv-x="921" d="M933 -247 L933 -140 L-12 -140 L-12 -247 L933 -247 Z " />
<glyph glyph-name="grave" unicode="&#x60;" horiz-adv-x="212" d="M120 1002 C85 1041 62 1060 50 1060 C47 1060 46 1056 46 1047 C46 1038 66 996 107 919 C148 842 171 804 176 804 C178 804 179 809 179 818 C179 827 178 838 176 851 C162 898 143 949 120 1002 L120 1002 Z " />
<glyph glyph-name="braceleft" unicode="&#x7b;" horiz-adv-x="830" d="M558 136 C558 184 537 235 494 290 C451 345 389 387 308 416 C391 446 454 488 496 541 C538 594 558 645 558 692 C558 775 519 905 519 984 C519 1022 535 1060 566 1095 C597 1130 645 1156 710 1172 L710 1202 C616 1189 540 1152 481 1088 C422 1024 393 953 393 876 C393 835 399 788 412 735 C425 682 432 638 432 602 C432 566 414 531 380 496 C346 461 299 440 239 432 L239 397 C299 390 346 368 380 332 C414 296 432 262 432 227 C432 192 425 148 412 94 C399 40 393 -8 393 -49 C393 -223 547 -350 710 -373 L710 -345 C645 -328 597 -302 566 -266 C535 -230 519 -193 519 -155 C519 -75 558 51 558 136 L558 136 Z " />
<glyph glyph-name="bar" unicode="&#x7c;" horiz-adv-x="347" d="M206 1202 L136 1202 L136 -373 L206 -373 L206 1202 Z " />
<glyph glyph-name="braceright" unicode="&#x7d;" horiz-adv-x="830" d="M340 984 C340 946 334 900 321 845 C308 790 302 739 302 692 C302 645 323 594 366 539 C409 484 470 442 551 412 C469 383 407 342 365 288 C323 234 302 184 302 136 C302 88 308 38 321 -16 C334 -70 340 -118 340 -156 C340 -194 325 -231 294 -266 C263 -301 215 -328 150 -345 L150 -373 C243 -360 319 -322 378 -258 C437 -194 467 -124 467 -49 C467 23 429 158 429 227 C429 262 446 296 480 332 C514 368 560 390 621 397 L621 432 C527 444 429 510 429 602 C429 672 467 803 467 876 C467 1051 313 1179 150 1202 L150 1172 C249 1148 340 1088 340 984 L340 984 Z " />
<glyph glyph-name="dieresis" unicode="&#xa8;" horiz-adv-x="862" d="M495 923 L607 1003 L520 1119 L408 1033 L495 923 Z M841 923 L951 1004 L866 1119 L752 1035 L841 923 Z " />
<glyph glyph-name="copyright" unicode="&#xa9;" horiz-adv-x="1244" d="M1122 137 C1231 246 1286 378 1286 533 C1286 688 1231 820 1122 929 C1013 1038 880 1093 726 1093 C572 1093 440 1038 330 929 C220 820 166 688 166 533 C166 378 220 246 330 137 C440 28 572 -27 726 -27 C880 -27 1013 28 1122 137 L1122 137 Z M362 169 C261 270 211 391 211 533 C211 675 261 796 362 897 C463 998 584 1048 726 1048 C868 1048 989 998 1090 897 C1191 796 1241 675 1241 533 C1241 391 1191 270 1090 169 C989 68 868 18 726 18 C584 18 463 68 362 169 L362 169 Z M792 798 C833 798 877 787 923 766 L915 684 L967 675 L1003 814 C932 834 866 844 805 844 C593 844 436 675 436 462 C436 304 544 213 704 213 C758 213 820 224 890 246 L902 307 C849 283 789 271 722 271 C603 271 544 335 544 462 C544 625 638 798 792 798 L792 798 Z " />
<glyph glyph-name="guillemotleft" unicode="&#xab;" horiz-adv-x="739" d="M362 -25 C365 -24 366 -20 366 -14 C366 -8 361 3 351 21 C302 128 278 239 278 355 L278 357 C278 477 299 581 342 670 C358 702 366 720 366 726 C366 732 365 736 362 737 C237 683 176 530 176 362 L176 350 C176 182 236 27 362 -25 L362 -25 Z M599 -25 C602 -24 603 -20 603 -14 C603 -8 598 4 589 21 C540 126 515 237 515 355 L515 357 C516 477 537 581 580 669 C595 698 602 717 602 724 C602 731 601 736 599 737 C474 683 413 530 413 362 L413 350 C413 181 473 27 599 -25 L599 -25 Z " />
<glyph glyph-name="logicalnot" unicode="&#xac;" horiz-adv-x="932" d="M177 510 L866 510 L814 248 L906 248 L975 590 L193 590 L177 510 Z " />
<glyph glyph-name="registered" unicode="&#xae;" horiz-adv-x="897" d="M900 764 C900 939 757 1084 581 1084 C405 1084 261 940 261 764 C261 588 404 445 580 445 C755 445 900 589 900 764 L900 764 Z M301 764 C301 914 430 1044 580 1044 C732 1044 860 916 860 764 C860 612 732 484 580 484 C430 484 301 614 301 764 L301 764 Z M529 737 L591 737 L641 596 L738 596 L747 639 L685 639 L650 750 C717 783 751 825 751 875 C751 931 700 959 598 959 L466 959 L458 915 L511 915 L456 639 L403 639 L394 596 L501 596 L529 737 Z M538 782 L564 915 L607 915 C667 915 697 899 697 866 C697 810 656 782 574 782 L538 782 Z " />
<glyph glyph-name="guillemotright" unicode="&#xbb;" horiz-adv-x="739" d="M163 -25 C289 27 349 181 349 350 L349 362 C349 530 288 683 163 737 C161 736 160 731 160 724 C160 717 167 698 182 669 C225 581 246 477 247 357 L247 355 C247 237 222 126 173 21 C164 4 159 -8 159 -14 C159 -20 160 -24 163 -25 L163 -25 Z M400 -25 C526 27 586 182 586 350 L586 362 C586 530 525 683 400 737 C397 736 396 732 396 726 C396 720 404 702 420 670 C463 581 484 477 484 357 L484 355 C484 239 460 128 411 21 C401 3 396 -8 396 -14 C396 -20 397 -24 400 -25 L400 -25 Z " />
<glyph glyph-name="uni060C" unicode="&#x60c;" horiz-adv-x="519" d="M346 -4 C398 -4 440 35 440 86 C440 136 405 180 346 180 C332 180 317 173 300 160 C298 166 297 172 297 180 C297 240 349 298 453 354 L397 385 C286 314 231 231 231 136 C231 61 279 -4 346 -4 L346 -4 Z " />
<glyph glyph-name="uni061B" unicode="&#x61b;" horiz-adv-x="466" d="M280 385 C333 385 375 423 375 475 C375 521 334 568 290 568 C270 568 251 562 235 549 C233 555 232 561 232 569 C232 629 284 687 388 743 L332 774 C221 703 165 619 165 524 C165 450 214 385 280 385 L280 385 Z M310 203 C238 203 196 161 196 101 C196 44 244 -2 300 -2 C356 -2 401 43 401 100 C401 152 359 203 310 203 L310 203 Z " />
<glyph glyph-name="uni061F" unicode="&#x61f;" horiz-adv-x="701" d="M76 988 C76 916 104 850 160 789 C169 782 186 767 213 744 C240 721 279 690 330 649 C381 608 406 573 406 542 C406 511 380 476 328 435 L440 377 C493 422 519 470 519 521 C519 572 491 623 435 676 L274 802 C217 851 189 896 189 938 C189 1035 274 1092 378 1092 C438 1092 493 1081 542 1058 L598 1204 C515 1229 436 1242 360 1242 C213 1242 76 1134 76 988 L76 988 Z M297 107 C297 54 348 0 398 0 L417 0 C461 2 512 51 512 96 C512 175 466 215 396 215 L394 215 C344 215 297 160 297 107 L297 107 Z " />
<glyph glyph-name="uni0621" unicode="&#x621;" horiz-adv-x="627" d="M554 267 C472 251 407 234 360 216 C262 231 211 266 207 323 C233 376 272 402 324 402 C357 402 388 387 416 357 L504 427 C451 476 400 501 351 501 C288 501 214 446 128 335 C122 314 119 299 119 289 C119 226 159 184 239 165 L239 162 C175 132 127 107 95 88 L81 -11 C212 84 356 138 513 150 L554 267 Z " />
<glyph glyph-name="uni0622" unicode="&#x622;" horiz-adv-x="356" d="M210 1242 L93 1123 C130 985 151 789 154 535 L162 -55 L245 83 C250 226 253 412 253 642 C253 872 239 1071 210 1242 L210 1242 Z M319 1394 L319 1458 C268 1423 208 1406 140 1406 C72 1406 21 1410 -12 1419 C-35 1370 -46 1316 -46 1255 C-40 1252 -23 1251 6 1251 C8 1281 16 1308 29 1331 C40 1330 65 1329 105 1329 C194 1329 265 1351 319 1394 L319 1394 Z " />
<glyph glyph-name="uni0623" unicode="&#x623;" horiz-adv-x="341" d="M195 1242 L78 1123 C115 985 136 789 139 535 L147 -55 L230 83 C235 226 238 412 238 642 C238 872 224 1071 195 1242 L195 1242 Z M208 1558 L260 1600 C236 1637 207 1656 174 1656 C120 1656 65 1614 9 1531 C9 1483 35 1450 88 1432 L88 1429 C62 1423 31 1410 -5 1391 L-5 1328 C12 1339 50 1356 106 1382 C162 1408 217 1424 270 1431 L292 1504 C247 1497 204 1483 166 1472 C119 1474 85 1496 65 1537 C92 1574 117 1592 140 1592 C163 1592 185 1581 208 1558 L208 1558 Z " />
<glyph glyph-name="uni0624" unicode="&#x624;" horiz-adv-x="619" d="M587 106 C587 329 510 462 355 506 C226 433 158 305 153 121 C153 104 155 82 160 55 C172 49 200 38 244 23 C288 8 335 0 384 0 C433 0 474 9 506 26 C502 -16 488 -58 464 -101 C391 -234 248 -350 36 -451 C100 -495 172 -519 253 -524 C438 -371 546 -196 576 0 C583 41 587 76 587 106 L587 106 Z M251 179 C251 254 277 315 330 361 C353 358 374 350 394 338 C414 326 439 304 466 272 C493 240 506 203 506 160 C483 146 446 139 394 139 C342 139 294 152 251 179 L251 179 Z M417 830 L469 872 C445 909 416 928 383 928 C329 928 274 886 218 803 C218 755 244 722 297 704 L297 701 C271 695 240 682 204 663 L204 600 C221 611 259 628 315 654 C371 680 426 696 479 703 L501 776 C456 769 413 755 375 744 C328 746 294 768 274 809 C301 846 326 864 349 864 C372 864 394 853 417 830 L417 830 Z " />
<glyph glyph-name="uni0625" unicode="&#x625;" horiz-adv-x="341" d="M195 1242 L78 1123 C115 985 136 789 139 535 L147 -55 L230 83 C235 226 238 412 238 642 C238 872 224 1071 195 1242 L195 1242 Z M227 -246 L279 -204 C255 -167 226 -148 193 -148 C139 -148 84 -190 28 -273 C28 -321 54 -354 107 -372 L107 -375 C81 -381 50 -394 14 -413 L14 -476 C31 -465 69 -448 125 -422 C181 -396 236 -380 289 -373 L311 -300 C266 -307 223 -321 185 -332 C138 -330 104 -308 84 -267 C111 -230 136 -212 159 -212 C182 -212 204 -223 227 -246 L227 -246 Z " />
<glyph glyph-name="uni0626" unicode="&#x626;" horiz-adv-x="1323" d="M426 -330 C656 -330 962 -223 1121 -144 C1148 -59 1162 19 1162 90 C1159 117 1144 137 1118 151 C1092 165 1039 180 957 196 C885 214 841 244 824 285 C860 364 907 429 964 480 C1021 531 1082 557 1148 557 C1175 557 1200 554 1222 548 L1271 708 C1250 717 1223 722 1190 722 C1012 722 866 581 753 299 C746 264 741 224 737 179 C782 119 852 81 948 65 C1005 54 1044 42 1063 30 C1082 18 1092 -1 1092 -27 C932 -101 662 -180 452 -180 C297 -180 184 -106 184 41 C184 122 256 278 289 332 C273 353 253 363 229 363 C123 169 70 30 70 -54 C70 -239 230 -330 426 -330 L426 -330 Z M569 805 L621 847 C597 884 568 903 535 903 C481 903 426 861 370 778 C370 730 396 697 449 679 L449 676 C423 670 392 657 356 638 L356 575 C373 586 411 603 467 629 C523 655 578 671 631 678 L653 751 C608 744 565 730 527 719 C480 721 446 743 426 784 C453 821 478 839 501 839 C524 839 546 828 569 805 L569 805 Z " />
<glyph glyph-name="uni0627" unicode="&#x627;" horiz-adv-x="341" d="M195 1242 L78 1123 C115 985 136 789 139 535 L147 -55 L230 83 C235 226 238 412 238 642 C238 872 224 1071 195 1242 L195 1242 Z " />
<glyph glyph-name="uni0628" unicode="&#x628;" horiz-adv-x="1316" d="M221 517 C210 538 198 548 186 548 C174 548 168 547 167 546 C98 432 64 336 64 257 C64 178 99 115 169 67 C261 3 362 -10 530 -12 L533 -12 C627 -12 750 3 904 32 C1058 61 1155 84 1196 101 C1206 111 1222 142 1246 196 C1270 250 1282 283 1282 294 C1282 305 1275 339 1262 396 C1249 453 1230 508 1204 559 L1122 397 C1137 380 1153 350 1170 306 C1187 262 1197 236 1198 227 C1032 174 777 139 549 139 C425 139 329 157 262 193 C195 229 162 276 162 333 C162 390 182 452 221 517 L221 517 Z M598 -382 L706 -274 L587 -172 L477 -281 L598 -382 Z " />
<glyph glyph-name="uni0629" unicode="&#x629;" horiz-adv-x="600" d="M280 -11 C340 -11 409 11 487 55 C524 120 548 182 561 241 C557 386 453 509 249 612 C136 399 79 245 79 150 C79 47 172 -11 280 -11 L280 -11 Z M167 216 C167 243 179 286 203 344 L251 451 C325 416 384 372 429 317 C465 270 483 226 483 186 C439 147 373 128 286 128 C230 128 167 160 167 216 L167 216 Z M74 864 L170 768 L269 864 L170 962 L74 864 Z M300 864 L396 768 L495 864 L396 962 L300 864 Z " />
<glyph glyph-name="uni062A" unicode="&#x62a;" horiz-adv-x="1316" d="M221 517 C210 538 198 548 186 548 C174 548 168 547 167 546 C98 432 64 336 64 257 C64 178 99 115 169 67 C261 3 362 -10 530 -12 L533 -12 C627 -12 750 3 904 32 C1058 61 1155 84 1196 101 C1206 111 1222 142 1246 196 C1270 250 1282 283 1282 294 C1282 305 1275 339 1262 396 C1249 453 1230 508 1204 559 L1122 397 C1137 380 1153 350 1170 306 C1187 262 1197 236 1198 227 C1032 174 777 139 549 139 C425 139 329 157 262 193 C195 229 162 276 162 333 C162 390 182 452 221 517 L221 517 Z M469 805 L565 709 L664 805 L565 903 L469 805 Z M695 805 L791 709 L890 805 L791 903 L695 805 Z " />
<glyph glyph-name="uni062B" unicode="&#x62b;" horiz-adv-x="1316" d="M221 517 C210 538 198 548 186 548 C174 548 168 547 167 546 C98 432 64 336 64 257 C64 178 99 115 169 67 C261 3 362 -10 530 -12 L533 -12 C627 -12 750 3 904 32 C1058 61 1155 84 1196 101 C1206 111 1222 142 1246 196 C1270 250 1282 283 1282 294 C1282 305 1275 339 1262 396 C1249 453 1230 508 1204 559 L1122 397 C1137 380 1153 350 1170 306 C1187 262 1197 236 1198 227 C1032 174 777 139 549 139 C425 139 329 157 262 193 C195 229 162 276 162 333 C162 390 182 452 221 517 L221 517 Z M672 862 L768 955 L672 1053 L577 955 L672 862 Z M786 665 L881 760 L786 858 L691 760 L786 665 Z M559 665 L654 760 L559 858 L462 760 L559 665 Z " />
<glyph glyph-name="uni062C" unicode="&#x62c;" horiz-adv-x="1011" d="M208 -82 C208 35 276 140 411 235 C541 328 683 377 836 381 L901 518 C863 507 814 501 755 501 C696 501 549 535 316 602 C281 612 264 617 263 617 C229 617 200 592 175 541 L99 383 C113 371 131 365 153 365 C186 441 213 479 236 479 C255 479 294 469 352 449 C410 429 485 412 578 398 L578 394 C434 343 312 270 214 175 C116 80 67 -27 67 -146 C67 -265 119 -358 222 -425 C325 -492 446 -525 586 -525 C726 -525 828 -511 889 -484 L984 -371 C916 -394 816 -405 686 -405 C458 -405 208 -296 208 -82 L208 -82 Z M590 -154 L698 -46 L579 56 L469 -53 L590 -154 Z " />
<glyph glyph-name="uni062D" unicode="&#x62d;" horiz-adv-x="1011" d="M208 -81 C208 36 276 141 411 236 C541 329 683 378 836 382 L901 519 C863 508 814 502 755 502 C696 502 549 536 316 603 C281 613 264 618 263 618 C229 618 200 593 175 542 L99 384 C113 372 131 366 153 366 C186 442 213 480 236 480 C255 480 294 470 352 450 C410 430 485 413 578 399 L578 395 C434 344 312 271 214 176 C116 81 67 -26 67 -145 C67 -264 119 -357 222 -424 C325 -491 446 -524 586 -524 C726 -524 828 -510 889 -483 L984 -370 C916 -393 816 -404 686 -404 C458 -404 208 -295 208 -81 L208 -81 Z " />
<glyph glyph-name="uni062E" unicode="&#x62e;" horiz-adv-x="1011" d="M208 -84 C208 33 276 138 411 233 C541 326 683 375 836 379 L901 516 C863 505 814 499 755 499 C696 499 549 533 316 600 C281 610 264 615 263 615 C229 615 200 590 175 539 L99 381 C113 369 131 363 153 363 C186 439 213 477 236 477 C255 477 294 467 352 447 C410 427 485 410 578 396 L578 392 C434 341 312 268 214 173 C116 78 67 -29 67 -148 C67 -267 119 -360 222 -427 C325 -494 446 -527 586 -527 C726 -527 828 -513 889 -486 L984 -373 C916 -396 816 -407 686 -407 C458 -407 208 -298 208 -84 L208 -84 Z M480 765 L588 873 L469 975 L359 866 L480 765 Z " />
<glyph glyph-name="uni062F" unicode="&#x62f;" horiz-adv-x="682" d="M280 128 C239 128 205 134 178 146 C175 155 174 171 174 193 L174 220 C163 226 156 229 150 229 C144 229 136 228 125 225 C116 166 111 128 111 112 C111 74 112 48 114 7 C150 -5 187 -11 224 -11 C367 -11 520 34 587 79 C622 175 639 248 639 299 C639 506 521 673 284 800 L245 640 C456 541 561 396 561 205 C518 175 356 128 280 128 L280 128 Z " />
<glyph glyph-name="uni0630" unicode="&#x630;" horiz-adv-x="682" d="M280 128 C239 128 205 134 178 146 C175 155 174 171 174 193 L174 220 C163 226 156 229 150 229 C144 229 136 228 125 225 C116 166 111 128 111 112 C111 74 112 48 114 7 C150 -5 187 -11 224 -11 C367 -11 520 34 587 79 C622 175 639 248 639 299 C639 506 521 673 284 800 L245 640 C456 541 561 396 561 205 C518 175 356 128 280 128 L280 128 Z M301 949 L409 1057 L290 1159 L180 1050 L301 949 Z " />
<glyph glyph-name="uni0631" unicode="&#x631;" horiz-adv-x="554" d="M11 -425 C27 -436 55 -450 94 -468 C133 -486 174 -495 219 -498 C414 -315 512 -129 512 62 C512 83 506 115 494 156 C462 267 422 353 375 416 L312 236 C388 165 429 86 436 0 C393 -160 251 -302 11 -425 L11 -425 Z " />
<glyph glyph-name="uni0632" unicode="&#x632;" horiz-adv-x="554" d="M11 -425 C27 -436 55 -450 94 -468 C133 -486 174 -495 219 -498 C414 -315 512 -129 512 62 C512 83 506 115 494 156 C462 267 422 353 375 416 L312 236 C388 165 429 86 436 0 C393 -160 251 -302 11 -425 L11 -425 Z M312 558 L420 666 L301 768 L191 659 L312 558 Z " />
<glyph glyph-name="uni0633" unicode="&#x633;" horiz-adv-x="1735" d="M1112 139 C1068 139 1033 156 1006 189 C975 230 942 299 905 395 L843 213 C914 84 950 -45 950 -175 L950 -182 C918 -209 882 -233 842 -256 C701 -335 570 -374 451 -375 C292 -375 180 -302 180 -151 C180 -60 224 71 263 132 C244 151 223 160 202 160 C112 2 67 -127 67 -226 C67 -426 213 -524 412 -524 C512 -524 618 -499 728 -450 C838 -401 918 -354 968 -308 C1007 -229 1027 -157 1027 -93 C1027 -61 1024 -20 1018 31 C1050 10 1082 0 1114 0 C1199 0 1256 43 1283 129 L1287 129 C1303 43 1357 0 1448 0 C1581 0 1667 154 1694 275 C1685 372 1651 466 1591 559 L1517 384 C1567 336 1597 287 1608 238 C1577 172 1516 139 1427 139 C1367 139 1323 191 1323 253 C1323 286 1325 318 1328 349 C1316 357 1304 361 1292 361 C1280 361 1269 359 1260 355 C1260 243 1215 139 1112 139 L1112 139 Z " />
<glyph glyph-name="uni0634" unicode="&#x634;" horiz-adv-x="1735" d="M1112 158 C1068 158 1033 175 1006 208 C975 249 942 318 905 414 L843 232 C914 103 950 -26 950 -156 L950 -163 C918 -190 882 -214 842 -237 C701 -316 570 -355 451 -356 C292 -356 180 -283 180 -132 C180 -41 224 90 263 151 C244 170 223 179 202 179 C112 21 67 -108 67 -207 C67 -407 213 -505 412 -505 C512 -505 618 -480 728 -431 C838 -382 918 -335 968 -289 C1007 -210 1027 -138 1027 -74 C1027 -42 1024 -1 1018 50 C1050 29 1082 19 1114 19 C1199 19 1256 62 1283 148 L1287 148 C1303 62 1357 19 1448 19 C1581 19 1667 173 1694 294 C1685 391 1651 485 1591 578 L1517 403 C1567 355 1597 306 1608 257 C1577 191 1516 158 1427 158 C1367 158 1323 210 1323 272 C1323 305 1325 337 1328 368 C1316 376 1304 380 1292 380 C1280 380 1269 378 1260 374 C1260 262 1215 158 1112 158 L1112 158 Z M1275 814 L1371 907 L1275 1005 L1180 907 L1275 814 Z M1389 617 L1484 712 L1389 810 L1294 712 L1389 617 Z M1162 617 L1257 712 L1162 810 L1065 712 L1162 617 Z " />
<glyph glyph-name="uni0635" unicode="&#x635;" horiz-adv-x="1954" d="M1797 247 C1780 232 1756 218 1727 206 C1621 161 1502 139 1370 139 L1182 139 C1346 325 1489 418 1610 418 C1700 418 1797 335 1797 247 L1797 247 Z M180 -151 C180 -60 224 71 263 132 C244 151 223 160 202 160 C112 2 67 -127 67 -226 C67 -426 213 -524 412 -524 C512 -524 618 -499 728 -450 C838 -401 918 -354 968 -308 C1007 -229 1027 -157 1027 -93 C1027 -61 1024 -20 1018 31 C1050 10 1102 0 1173 0 C1371 0 1522 21 1625 62 C1742 106 1837 185 1910 299 C1910 360 1886 414 1838 464 C1790 514 1732 539 1662 539 C1592 539 1522 517 1451 473 C1354 410 1236 299 1097 139 C1062 139 1030 156 1003 192 C976 228 943 296 905 395 L843 213 C914 84 950 -45 950 -175 L950 -182 C918 -209 882 -233 842 -256 C701 -335 570 -374 451 -375 C292 -375 180 -302 180 -151 L180 -151 Z " />
<glyph glyph-name="uni0636" unicode="&#x636;" horiz-adv-x="1954" d="M1797 247 C1780 232 1756 218 1727 206 C1621 161 1502 139 1370 139 L1182 139 C1346 325 1489 418 1610 418 C1700 418 1797 335 1797 247 L1797 247 Z M180 -151 C180 -60 224 71 263 132 C244 151 223 160 202 160 C112 2 67 -127 67 -226 C67 -426 213 -524 412 -524 C512 -524 618 -499 728 -450 C838 -401 918 -354 968 -308 C1007 -229 1027 -157 1027 -93 C1027 -61 1024 -20 1018 31 C1050 10 1102 0 1173 0 C1371 0 1522 21 1625 62 C1742 106 1837 185 1910 299 C1910 360 1886 414 1838 464 C1790 514 1732 539 1662 539 C1592 539 1522 517 1451 473 C1354 410 1236 299 1097 139 C1062 139 1030 156 1003 192 C976 228 943 296 905 395 L843 213 C914 84 950 -45 950 -175 L950 -182 C918 -209 882 -233 842 -256 C701 -335 570 -374 451 -375 C292 -375 180 -302 180 -151 L180 -151 Z M1310 694 L1418 802 L1299 904 L1189 795 L1310 694 Z " />
<glyph glyph-name="uni0637" unicode="&#x637;" horiz-adv-x="1157" d="M1103 299 C1103 360 1078 414 1030 464 C982 514 923 539 854 539 C785 539 716 518 646 477 C576 436 488 357 384 241 C384 525 374 784 353 1018 C376 1004 401 993 427 986 C395 1031 337 1174 315 1242 L216 1118 C238 1067 256 945 272 754 C288 563 296 359 296 141 C205 141 128 151 63 170 C129 98 199 41 274 0 L392 0 C769 0 952 70 1103 299 L1103 299 Z M559 139 L377 139 C540 325 681 418 802 418 C893 418 989 335 989 247 C912 181 711 139 559 139 L559 139 Z " />
<glyph glyph-name="uni0638" unicode="&#x638;" horiz-adv-x="1157" d="M1103 299 C1103 360 1078 414 1030 464 C982 514 923 539 854 539 C785 539 716 518 646 477 C576 436 488 357 384 241 C384 525 374 784 353 1018 C376 1004 401 993 427 986 C395 1031 337 1174 315 1242 L216 1118 C238 1067 256 945 272 754 C288 563 296 359 296 141 C205 141 128 151 63 170 C129 98 199 41 274 0 L392 0 C769 0 952 70 1103 299 L1103 299 Z M559 139 L377 139 C540 325 681 418 802 418 C893 418 989 335 989 247 C912 181 711 139 559 139 L559 139 Z M754 838 L862 946 L743 1048 L633 939 L754 838 Z " />
<glyph glyph-name="uni0639" unicode="&#x639;" horiz-adv-x="917" d="M62 -184 C62 -411 240 -524 597 -524 C694 -524 758 -517 789 -504 L891 -385 C856 -404 796 -414 712 -414 C454 -414 193 -344 193 -120 C193 -23 244 64 346 140 C448 216 584 264 752 283 L808 433 C597 368 482 334 465 330 C410 342 364 370 326 415 C288 460 270 503 270 546 C333 599 424 626 545 626 C586 626 633 619 685 605 C615 699 539 746 458 746 C404 746 352 723 300 676 C248 629 209 564 182 481 C182 368 238 287 351 239 C222 158 62 -1 62 -184 L62 -184 Z " />
<glyph glyph-name="uni063A" unicode="&#x63a;" horiz-adv-x="917" d="M62 -184 C62 -411 240 -524 597 -524 C694 -524 758 -517 789 -504 L891 -385 C856 -404 796 -414 712 -414 C454 -414 193 -344 193 -120 C193 -23 244 64 346 140 C448 216 584 264 752 283 L808 433 C597 368 482 334 465 330 C410 342 364 370 326 415 C288 460 270 503 270 546 C333 599 424 626 545 626 C586 626 633 619 685 605 C615 699 539 746 458 746 C404 746 352 723 300 676 C248 629 209 564 182 481 C182 368 238 287 351 239 C222 158 62 -1 62 -184 L62 -184 Z M438 905 L546 1013 L427 1115 L317 1006 L438 905 Z " />
<glyph glyph-name="uni0640" unicode="&#x640;" horiz-adv-x="397" d="M433 24 L433 110 C433 129 424 139 407 139 L-11 139 C-28 139 -36 129 -36 110 L-36 24 C-36 8 -28 0 -11 0 L407 0 C424 0 433 8 433 24 L433 24 Z " />
<glyph glyph-name="uni0641" unicode="&#x641;" horiz-adv-x="1228" d="M1186 345 C1186 550 1108 671 952 707 C857 632 810 535 810 416 C810 390 813 358 820 319 C859 290 910 275 973 275 C1036 275 1086 290 1123 319 C1121 263 1110 218 1091 183 C1067 167 1003 152 900 140 C797 128 656 122 478 122 C385 122 309 138 248 170 C193 198 158 232 158 311 C158 348 175 396 210 455 C202 473 193 482 182 482 C171 482 165 481 164 480 C103 381 73 298 73 228 C73 158 106 100 171 56 C236 12 332 -10 457 -10 C793 -10 1018 20 1133 79 C1168 167 1186 256 1186 345 L1186 345 Z M1109 429 C1080 408 1040 397 988 397 C936 397 900 408 879 429 C879 496 896 544 931 574 C1010 574 1109 503 1109 429 L1109 429 Z M956 854 L1064 962 L945 1064 L835 955 L956 854 Z " />
<glyph glyph-name="uni0642" unicode="&#x642;" horiz-adv-x="1135" d="M1002 292 C969 267 922 254 862 254 C802 254 763 269 746 299 C746 370 767 422 810 456 C857 456 902 437 942 400 C982 363 1002 327 1002 292 L1002 292 Z M180 -38 C180 57 223 181 263 247 C243 265 223 274 202 274 C112 115 67 -14 67 -112 C67 -318 217 -408 427 -410 L432 -410 C543 -410 662 -379 789 -318 C916 -257 1004 -191 1052 -121 C1077 -60 1089 30 1089 151 C1089 414 1001 566 825 605 C721 521 669 412 669 277 C669 245 672 208 678 165 C720 131 778 114 852 114 C926 114 981 133 1018 170 L1018 104 C1018 69 1013 26 1002 -27 C963 -62 921 -94 874 -122 C723 -213 582 -259 451 -261 C293 -261 180 -188 180 -38 L180 -38 Z M622 841 L718 745 L817 841 L718 939 L622 841 Z M848 841 L944 745 L1043 841 L944 939 L848 841 Z " />
<glyph glyph-name="uni0643" unicode="&#x643;" horiz-adv-x="1212" d="M638 571 C577 536 500 519 407 519 L373 409 C515 424 617 459 678 514 L698 645 C638 701 569 739 492 759 C555 792 633 815 724 827 L764 950 C622 913 518 869 452 818 L436 685 C515 662 606 607 638 571 L638 571 Z M1140 986 C1120 1020 1043 1199 1029 1242 L932 1118 C941 1093 951 1051 960 994 C989 811 1006 545 1011 196 C983 190 914 179 802 162 C690 145 575 137 457 137 C339 137 232 153 136 184 L76 22 C193 0 310 -11 427 -11 L455 -11 C470 -11 495 -9 532 -6 C715 10 874 34 1011 65 C1039 108 1068 167 1097 241 C1097 534 1087 793 1067 1018 C1096 1003 1121 992 1140 986 L1140 986 Z " />
<glyph glyph-name="uni0644" unicode="&#x644;" horiz-adv-x="1083" d="M67 -208 C67 -287 98 -349 160 -394 C208 -430 302 -463 378 -463 L451 -463 C471 -463 501 -459 540 -452 C675 -427 792 -374 892 -294 C921 -231 947 -154 972 -63 C972 53 968 248 958 522 C948 796 941 962 937 1018 C958 1003 984 992 1013 987 C1000 1004 979 1043 951 1103 C921 1177 904 1223 899 1242 L798 1118 C818 1073 836 911 853 632 C870 353 879 89 881 -162 C744 -263 604 -313 459 -313 L450 -313 C257 -313 160 -245 160 -110 C160 -35 174 30 203 83 C190 104 172 115 150 115 C116 57 67 -118 67 -208 L67 -208 Z " />
<glyph glyph-name="uni0645" unicode="&#x645;" horiz-adv-x="756" d="M172 43 C234 112 395 148 656 150 C698 218 719 283 719 346 C638 494 529 568 392 568 C370 568 344 564 315 557 C286 518 265 486 254 463 C243 440 238 405 238 358 C238 311 249 266 272 225 C213 210 163 185 122 148 C97 73 83 19 81 -12 C106 -199 119 -373 119 -535 C164 -492 193 -450 208 -409 C208 -312 187 -52 172 43 L172 43 Z M636 265 C611 268 579 270 538 270 C497 270 431 262 342 247 C324 273 315 304 315 338 C315 372 316 402 319 429 C330 434 347 436 368 436 C490 436 589 353 636 265 L636 265 Z " />
<glyph glyph-name="uni0646" unicode="&#x646;" horiz-adv-x="1092" d="M975 20 L975 -2 C852 -118 650 -202 454 -205 C297 -205 184 -132 184 18 C184 109 229 238 267 301 C248 320 228 330 208 330 C116 173 70 45 70 -54 C70 -257 218 -355 423 -355 C609 -355 861 -269 989 -141 C1024 -52 1042 4 1044 26 C1046 48 1047 63 1047 69 L1047 101 C1047 256 1018 410 961 564 L874 378 C912 304 975 115 975 20 L975 20 Z M580 626 L688 734 L569 836 L459 727 L580 626 Z " />
<glyph glyph-name="uni0647" unicode="&#x647;" horiz-adv-x="598" d="M280 -11 C340 -11 409 11 487 55 C524 120 548 182 561 241 C557 386 453 509 249 612 C136 399 79 245 79 150 C79 47 172 -11 280 -11 L280 -11 Z M167 216 C167 243 179 286 203 344 L251 451 C325 416 384 372 429 317 C465 270 483 226 483 186 C439 147 373 128 286 128 C230 128 167 160 167 216 L167 216 Z " />
<glyph glyph-name="uni0648" unicode="&#x648;" horiz-adv-x="619" d="M587 106 C587 329 510 462 355 506 C226 433 158 305 153 121 C153 104 155 82 160 55 C172 49 200 38 244 23 C288 8 335 0 384 0 C433 0 474 9 506 26 C502 -16 488 -58 464 -101 C391 -234 248 -350 36 -451 C100 -495 172 -519 253 -524 C438 -371 546 -196 576 0 C583 41 587 76 587 106 L587 106 Z M251 179 C251 254 277 315 330 361 C353 358 374 350 394 338 C414 326 439 304 466 272 C493 240 506 203 506 160 C483 146 446 139 394 139 C342 139 294 152 251 179 L251 179 Z " />
<glyph glyph-name="uni0649" unicode="&#x649;" horiz-adv-x="1323" d="M426 -331 C656 -331 962 -224 1121 -145 C1148 -60 1162 18 1162 89 C1159 116 1144 136 1118 150 C1092 164 1039 179 957 195 C885 213 841 243 824 284 C860 363 907 428 964 479 C1021 530 1082 556 1148 556 C1175 556 1200 553 1222 547 L1271 707 C1250 716 1223 721 1190 721 C1012 721 866 580 753 298 C746 263 741 223 737 178 C782 118 852 80 948 64 C1005 53 1044 41 1063 29 C1082 17 1092 -2 1092 -28 C932 -102 662 -181 452 -181 C297 -181 184 -107 184 40 C184 121 256 277 289 331 C273 352 253 362 229 362 C123 168 70 29 70 -55 C70 -240 230 -331 426 -331 L426 -331 Z " />
<glyph glyph-name="uni064A" unicode="&#x64a;" horiz-adv-x="1323" d="M426 -330 C656 -330 962 -223 1121 -144 C1148 -59 1162 19 1162 90 C1159 117 1144 137 1118 151 C1092 165 1039 180 957 196 C885 214 841 244 824 285 C860 364 907 429 964 480 C1021 531 1082 557 1148 557 C1175 557 1200 554 1222 548 L1271 708 C1250 717 1223 722 1190 722 C1012 722 866 581 753 299 C746 264 741 224 737 179 C782 119 852 81 948 65 C1005 54 1044 42 1063 30 C1082 18 1092 -1 1092 -27 C932 -101 662 -180 452 -180 C297 -180 184 -106 184 41 C184 122 256 278 289 332 C273 353 253 363 229 363 C123 169 70 30 70 -54 C70 -239 230 -330 426 -330 L426 -330 Z M320 -581 L416 -677 L515 -581 L416 -483 L320 -581 Z M546 -581 L642 -677 L741 -581 L642 -483 L546 -581 Z " />
<glyph glyph-name="uni064B" unicode="&#x64b;" d="M-175 4 L157 135 L157 207 L-175 75 L-175 4 Z M-175 158 L157 290 L157 362 L-175 231 L-175 158 Z " />
<glyph glyph-name="uni064C" unicode="&#x64c;" d="M3 195 C-28 156 -76 125 -140 101 C-143 178 -153 233 -172 265 C-193 234 -234 209 -297 189 L-297 98 C-250 119 -214 141 -190 163 C-185 154 -183 101 -183 4 C-73 42 7 100 56 177 L128 148 L128 224 L84 237 C98 278 105 312 105 341 C105 398 87 435 51 451 C-46 451 -106 359 -119 271 C-94 237 -54 212 3 195 L3 195 Z M40 247 C-9 265 -43 283 -61 301 C-48 349 -22 373 17 373 C41 364 53 345 53 316 C53 287 49 264 40 247 L40 247 Z " />
<glyph glyph-name="uni064D" unicode="&#x64d;" d="M-171 -159 L161 -28 L161 44 L-171 -88 L-171 -159 Z M-171 -4 L161 127 L161 199 L-171 68 L-171 -4 Z " />
<glyph glyph-name="uni064E" unicode="&#x64e;" d="M-157 16 L175 147 L175 219 L-157 87 L-157 16 Z " />
<glyph glyph-name="uni064F" unicode="&#x64f;" d="M108 246 C122 286 129 320 129 347 C129 404 111 441 76 457 C54 457 33 452 14 443 C-47 414 -83 356 -96 271 C-72 244 -32 221 23 202 C-20 147 -85 113 -170 99 L-170 6 C-53 47 31 106 83 185 L162 152 L162 228 C146 231 128 237 108 246 L108 246 Z M61 250 C12 267 -21 285 -38 302 C-26 353 1 379 43 379 C67 370 79 350 79 320 C79 290 73 267 61 250 L61 250 Z " />
<glyph glyph-name="uni0650" unicode="&#x650;" d="M-157 16 L175 147 L175 219 L-157 87 L-157 16 Z " />
<glyph glyph-name="uni0651" unicode="&#x651;" d="M106 200 C106 148 95 122 72 122 C43 122 28 159 28 234 L-26 214 C-25 209 -24 203 -24 198 L-24 178 C-24 109 -41 75 -76 75 C-95 75 -106 91 -110 124 L-110 198 L-163 176 C-163 79 -162 -4 -87 -4 C-34 -4 -2 36 11 115 L14 117 C19 69 38 45 70 45 C130 45 160 87 160 172 L160 281 L102 259 C105 220 106 201 106 200 L106 200 Z " />
<glyph glyph-name="uni0652" unicode="&#x652;" d="M6 0 C44 0 85 21 126 62 C136 88 141 110 141 128 C141 203 89 266 -14 319 C-81 218 -114 145 -114 99 C-114 35 -62 0 6 0 L6 0 Z M-14 231 C48 203 84 165 94 117 C75 94 44 83 0 83 C-44 83 -65 97 -65 124 C-65 147 -48 182 -14 231 L-14 231 Z " />
<glyph glyph-name="uni0653" unicode="&#x653;" horiz-adv-x="385" d="M367 888 L367 952 C316 917 256 900 188 900 C120 900 69 904 36 913 C13 864 2 810 2 749 C8 746 25 745 54 745 C56 775 64 802 77 825 C88 824 113 823 153 823 C242 823 313 845 367 888 L367 888 Z " />
<glyph glyph-name="uni0654" unicode="&#x654;" d="M62 218 L114 260 C90 297 61 316 28 316 C-26 316 -81 274 -137 191 C-137 143 -111 110 -58 92 L-58 89 C-84 83 -115 70 -151 51 L-151 -12 C-134 -1 -96 16 -40 42 C16 68 71 84 124 91 L146 164 C101 157 58 143 20 132 C-27 134 -61 156 -81 197 C-54 234 -29 252 -6 252 C17 252 39 241 62 218 L62 218 Z " />
<glyph glyph-name="uni0655" unicode="&#x655;" d="M58 105 L110 147 C86 184 57 203 24 203 C-30 203 -85 161 -141 78 C-141 30 -115 -3 -62 -21 L-62 -24 C-88 -30 -119 -43 -155 -62 L-155 -125 C-138 -114 -100 -97 -44 -71 C12 -45 67 -29 120 -22 L142 51 C97 44 54 30 16 19 C-31 21 -65 43 -85 84 C-58 121 -33 139 -10 139 C13 139 35 128 58 105 L58 105 Z " />
<glyph glyph-name="uni0656" unicode="&#x656;" d="M-35 356 L-81 275 C-36 197 -14 125 -14 58 C-14 26 -15 5 -17 -4 L18 11 C29 60 34 101 34 132 C34 208 -2 305 -35 356 L-35 356 Z " />
<glyph glyph-name="uni0660" unicode="&#x660;" horiz-adv-x="841" d="M602 512 C528 539 461 590 402 664 C369 581 317 516 247 468 C280 455 318 432 359 399 C395 368 423 338 442 310 C479 390 556 479 602 512 L602 512 Z " />
<glyph glyph-name="uni0661" unicode="&#x661;" horiz-adv-x="841" d="M494 -55 L583 67 C583 239 565 385 528 504 C491 623 408 803 279 1044 L200 889 C322 678 401 512 438 392 C475 272 494 123 494 -55 L494 -55 Z " />
<glyph glyph-name="uni0662" unicode="&#x662;" horiz-adv-x="841" d="M339 730 L341 731 C384 704 429 690 478 690 C622 690 712 787 748 982 L690 1049 C668 966 635 904 591 864 C566 841 533 830 492 830 L457 830 C436 830 414 833 391 840 C321 859 250 927 179 1044 L99 889 C221 678 300 513 336 395 C372 277 391 127 391 -55 L481 67 C477 345 449 491 339 730 L339 730 Z " />
<glyph glyph-name="uni0663" unicode="&#x663;" horiz-adv-x="841" d="M501 832 L504 832 C519 759 560 722 627 722 C732 722 784 818 784 1011 L717 1054 C717 916 688 847 631 847 C615 847 601 851 588 860 C547 888 526 944 526 1027 L459 1027 C459 901 420 838 341 838 C257 838 182 905 115 1040 L36 889 C155 688 234 525 272 400 C310 275 330 123 330 -55 L418 67 C418 198 410 308 393 396 C376 484 339 590 281 715 C306 704 337 698 372 698 C438 698 497 772 501 832 L501 832 Z " />
<glyph glyph-name="uni0664" unicode="&#x664;" horiz-adv-x="841" d="M270 714 C329 787 377 836 412 858 C447 880 480 891 510 891 C540 891 569 884 597 870 L652 1001 C616 1010 586 1015 561 1015 C432 1015 292 896 141 658 C181 614 328 526 391 504 C294 401 213 297 150 191 C356 71 532 4 679 -9 L712 132 L700 132 C577 132 444 172 301 253 C364 344 449 449 557 568 C507 579 301 686 270 714 L270 714 Z " />
<glyph glyph-name="uni0665" unicode="&#x665;" horiz-adv-x="841" d="M390 126 C486 126 625 198 669 254 C690 353 701 425 703 468 C667 697 563 827 391 858 C234 715 155 506 155 231 C204 179 293 126 390 126 L390 126 Z M397 693 C531 668 621 518 634 368 C561 306 485 275 407 275 C329 275 272 299 236 346 C253 522 307 638 397 693 L397 693 Z " />
<glyph glyph-name="uni0666" unicode="&#x666;" horiz-adv-x="841" d="M616 520 C616 612 625 758 642 959 C561 938 470 928 372 928 C274 928 210 935 180 950 C151 966 137 997 137 1044 L63 1044 C70 933 92 860 129 825 C165 794 231 779 326 779 C421 779 492 785 539 796 C527 675 521 552 521 429 C521 306 533 214 558 154 C583 94 633 35 708 -24 L739 157 C642 237 616 339 616 520 L616 520 Z " />
<glyph glyph-name="uni0667" unicode="&#x667;" horiz-adv-x="841" d="M108 1044 L52 838 C234 650 346 368 387 -9 L452 -9 C519 425 629 707 781 838 L743 1044 C573 857 452 529 422 191 L418 191 C396 531 277 866 108 1044 L108 1044 Z " />
<glyph glyph-name="uni0668" unicode="&#x668;" horiz-adv-x="841" d="M731 -24 L789 184 C606 364 494 646 452 1029 L387 1029 C370 919 351 818 328 727 C259 453 170 272 62 184 L99 -24 C270 155 388 489 418 822 L420 822 C447 492 562 149 731 -24 L731 -24 Z " />
<glyph glyph-name="uni0669" unicode="&#x669;" horiz-adv-x="841" d="M485 593 C494 400 516 263 552 180 C588 97 646 29 724 -24 L767 150 C632 215 564 382 564 649 C564 710 559 764 548 811 C513 966 431 1044 304 1044 C278 1044 260 1042 249 1038 C150 961 101 828 101 638 C160 565 231 528 315 528 C367 528 464 563 485 593 L485 593 Z M334 678 C277 678 229 698 191 739 C190 742 189 746 189 750 L189 760 C189 814 205 856 236 885 C251 891 274 894 307 894 C390 894 458 796 466 712 C446 692 381 678 334 678 L334 678 Z " />
<glyph glyph-name="uni066A" unicode="&#x66a;" horiz-adv-x="901" d="M194 -116 L270 -146 L763 1145 L687 1175 L194 -116 Z M738 135 C689 135 649 95 649 46 C649 -2 690 -42 738 -42 C786 -42 826 -2 826 46 C826 94 787 135 738 135 L738 135 Z M194 1089 C146 1089 106 1048 106 1000 C106 952 146 912 194 912 C242 912 282 952 282 1000 C282 1048 242 1089 194 1089 L194 1089 Z " />
<glyph glyph-name="uni066B" unicode="&#x66b;" horiz-adv-x="867" d="M104 -458 L204 -458 L779 442 L678 442 L104 -458 Z " />
<glyph glyph-name="uni066C" unicode="&#x66c;" horiz-adv-x="353" d="M140 884 C140 837 174 811 218 800 C218 743 197 678 155 603 C151 594 153 590 162 590 C188 590 194 613 210 654 C251 745 272 820 272 879 C272 938 252 968 213 968 C174 968 140 921 140 884 L140 884 Z " />
<glyph glyph-name="uni066D" unicode="&#x66d;" horiz-adv-x="1118" d="M694 729 L948 975 L860 1065 L616 813 L623 1176 L498 1176 L502 817 L258 1065 L170 975 L420 729 L63 733 L63 610 L422 614 L147 352 L236 264 L502 539 L498 168 L623 168 L616 539 L883 264 L971 352 L702 612 L1057 610 L1057 733 L694 729 Z " />
<glyph glyph-name="uni0670" unicode="&#x670;" d="M-35 356 L-81 275 C-36 197 -14 125 -14 58 C-14 26 -15 5 -17 -4 L18 11 C29 60 34 101 34 132 C34 208 -2 305 -35 356 L-35 356 Z " />
<glyph glyph-name="uni0671" unicode="&#x671;" horiz-adv-x="341" d="M195 1242 L78 1123 C115 985 136 789 139 535 L147 -55 L230 83 C235 226 238 412 238 642 C238 872 224 1071 195 1242 L195 1242 Z M131 1374 C172 1413 200 1435 217 1440 C234 1445 246 1448 255 1448 C274 1448 291 1422 289 1402 C276 1380 234 1369 163 1369 C147 1369 136 1371 131 1374 L131 1374 Z M259 1487 C220 1487 171 1452 110 1381 C93 1390 72 1395 45 1395 C18 1395 -8 1383 -31 1359 C-21 1362 -6 1363 13 1363 C32 1363 54 1356 80 1343 C106 1330 134 1323 165 1322 L168 1322 C230 1323 274 1340 299 1375 C311 1391 317 1406 317 1420 C317 1453 296 1487 259 1487 L259 1487 Z " />
<glyph glyph-name="uni0672" unicode="&#x672;" horiz-adv-x="341" d="M195 1242 L78 1123 C115 985 136 789 139 535 L147 -55 L230 83 C235 226 238 412 238 642 C238 872 224 1071 195 1242 L195 1242 Z M138 1370 C93 1348 -2 1362 -2 1291 C-2 1283 -1 1279 1 1279 C3 1279 5 1279 6 1280 C18 1307 58 1323 125 1328 C192 1333 241 1347 271 1369 C284 1392 290 1406 290 1413 C290 1414 289 1414 287 1414 C283 1414 274 1412 261 1408 C242 1402 217 1400 186 1400 C135 1400 106 1419 98 1456 C104 1477 130 1504 157 1504 C169 1504 213 1478 213 1465 C213 1464 212 1464 212 1463 C237 1483 249 1498 249 1507 C249 1516 248 1523 245 1526 C214 1555 203 1558 161 1558 C151 1558 139 1554 125 1546 C83 1522 62 1484 62 1433 C62 1391 102 1372 138 1370 L138 1370 Z " />
<glyph glyph-name="uni0673" unicode="&#x673;" horiz-adv-x="341" d="M195 1242 L78 1123 C115 985 136 789 139 535 L147 -55 L230 83 C235 226 238 412 238 642 C238 872 224 1071 195 1242 L195 1242 Z M143 -321 C98 -343 3 -329 3 -400 C3 -408 4 -412 6 -412 C8 -412 10 -412 11 -411 C23 -384 63 -368 130 -363 C197 -358 246 -344 276 -322 C289 -299 295 -285 295 -278 C295 -277 294 -277 292 -277 C288 -277 279 -279 266 -283 C247 -289 222 -291 191 -291 C140 -291 111 -272 103 -235 C109 -214 135 -187 162 -187 C174 -187 218 -213 218 -226 C218 -227 217 -227 217 -228 C242 -208 254 -193 254 -184 C254 -175 253 -168 250 -165 C219 -136 208 -133 166 -133 C156 -133 144 -137 130 -145 C88 -169 67 -207 67 -258 C67 -300 107 -319 143 -321 L143 -321 Z " />
<glyph glyph-name="uni0675" unicode="&#x675;" horiz-adv-x="341" d="M195 1242 L78 1123 C115 985 136 789 139 535 L147 -55 L230 83 C235 226 238 412 238 642 C238 872 224 1071 195 1242 L195 1242 Z M205 1500 L257 1542 C233 1579 204 1598 171 1598 C117 1598 62 1556 6 1473 C6 1425 32 1392 85 1374 L85 1371 C59 1365 28 1352 -8 1333 L-8 1270 C9 1281 47 1298 103 1324 C159 1350 214 1366 267 1373 L289 1446 C244 1439 201 1425 163 1414 C116 1416 82 1438 62 1479 C89 1516 114 1534 137 1534 C160 1534 182 1523 205 1500 L205 1500 Z " />
<glyph glyph-name="uni0676" unicode="&#x676;" horiz-adv-x="643" d="M587 106 C587 329 510 462 355 506 C226 433 158 305 153 121 C153 104 155 82 160 55 C172 49 200 38 244 23 C288 8 335 0 384 0 C433 0 474 9 506 26 C502 -16 488 -58 464 -101 C391 -234 248 -350 36 -451 C100 -495 172 -519 253 -524 C438 -371 546 -196 576 0 C583 41 587 76 587 106 L587 106 Z M251 179 C251 254 277 315 330 361 C353 358 374 350 394 338 C414 326 439 304 466 272 C493 240 506 203 506 160 C483 146 446 139 394 139 C342 139 294 152 251 179 L251 179 Z M435 878 L487 920 C463 957 434 976 401 976 C347 976 292 934 236 851 C236 803 262 770 315 752 L315 749 C289 743 258 730 222 711 L222 648 C239 659 277 676 333 702 C389 728 444 744 497 751 L519 824 C474 817 431 803 393 792 C346 794 312 816 292 857 C319 894 344 912 367 912 C390 912 412 901 435 878 L435 878 Z " />
<glyph glyph-name="uni0677" unicode="&#x677;" horiz-adv-x="643" d="M587 106 C587 329 510 462 355 506 C226 433 158 305 153 121 C153 104 155 82 160 55 C172 49 200 38 244 23 C288 8 335 0 384 0 C433 0 474 9 506 26 C502 -16 488 -58 464 -101 C391 -234 248 -350 36 -451 C100 -495 172 -519 253 -524 C438 -371 546 -196 576 0 C583 41 587 76 587 106 L587 106 Z M251 179 C251 254 277 315 330 361 C353 358 374 350 394 338 C414 326 439 304 466 272 C493 240 506 203 506 160 C483 146 446 139 394 139 C342 139 294 152 251 179 L251 179 Z M580 807 L632 849 C608 886 579 905 546 905 C492 905 437 863 381 780 C381 732 407 699 460 681 L460 678 C434 672 403 659 367 640 L367 577 C384 588 422 605 478 631 C534 657 589 673 642 680 L664 753 C619 746 576 732 538 721 C491 723 457 745 437 786 C464 823 489 841 512 841 C535 841 557 830 580 807 L580 807 Z M259 741 C271 775 277 805 277 829 C277 878 261 910 230 924 C211 924 193 920 176 912 C124 887 93 837 81 762 C102 739 137 719 185 702 C144 654 88 624 17 613 L17 532 C118 567 191 619 236 687 L306 659 L306 725 C290 728 274 733 259 741 L259 741 Z M217 744 C176 759 147 774 132 789 C142 834 166 856 202 856 C223 849 233 833 233 806 C233 779 228 758 217 744 L217 744 Z " />
<glyph glyph-name="uni0678" unicode="&#x678;" horiz-adv-x="1323" d="M426 -330 C656 -330 962 -223 1121 -144 C1148 -59 1162 19 1162 90 C1159 117 1144 137 1118 151 C1092 165 1039 180 957 196 C885 214 841 244 824 285 C860 364 907 429 964 480 C1021 531 1082 557 1148 557 C1175 557 1200 554 1222 548 L1271 708 C1250 717 1223 722 1190 722 C1012 722 866 581 753 299 C746 264 741 224 737 179 C782 119 852 81 948 65 C1005 54 1044 42 1063 30 C1082 18 1092 -1 1092 -27 C932 -101 662 -180 452 -180 C297 -180 184 -106 184 41 C184 122 256 278 289 332 C273 353 253 363 229 363 C123 169 70 30 70 -54 C70 -239 230 -330 426 -330 L426 -330 Z M526 794 L578 836 C554 873 525 892 492 892 C438 892 383 850 327 767 C327 719 353 686 406 668 L406 665 C380 659 349 646 313 627 L313 564 C330 575 368 592 424 618 C480 644 535 660 588 667 L610 740 C565 733 522 719 484 708 C437 710 403 732 383 773 C410 810 435 828 458 828 C481 828 503 817 526 794 L526 794 Z " />
<glyph glyph-name="uni0679" unicode="&#x679;" horiz-adv-x="1316" d="M221 517 C210 538 198 548 186 548 C174 548 168 547 167 546 C98 432 64 336 64 257 C64 178 99 115 169 67 C261 3 362 -10 530 -12 L533 -12 C627 -12 750 3 904 32 C1058 61 1155 84 1196 101 C1206 111 1222 142 1246 196 C1270 250 1282 283 1282 294 C1282 305 1275 339 1262 396 C1249 453 1230 508 1204 559 L1122 397 C1137 380 1153 350 1170 306 C1187 262 1197 236 1198 227 C1032 174 777 139 549 139 C425 139 329 157 262 193 C195 229 162 276 162 333 C162 390 182 452 221 517 L221 517 Z M835 713 C835 753 795 790 754 790 C732 790 709 783 686 770 C663 757 635 731 601 693 C601 717 602 738 602 756 L602 822 C602 847 600 875 597 905 C602 901 610 898 621 895 C617 899 612 909 606 924 C596 948 587 957 584 978 L552 937 C566 904 573 839 573 744 L572 662 C538 662 513 665 497 670 C514 651 537 632 565 615 L602 615 C725 615 784 638 835 713 L835 713 Z M798 695 C770 672 723 661 658 661 L598 661 C652 721 698 751 736 751 C765 751 798 723 798 695 L798 695 Z " />
<glyph glyph-name="uni067A" unicode="&#x67a;" horiz-adv-x="1316" d="M221 517 C210 538 198 548 186 548 C174 548 168 547 167 546 C98 432 64 336 64 257 C64 178 99 115 169 67 C261 3 362 -10 530 -12 L533 -12 C627 -12 750 3 904 32 C1058 61 1155 84 1196 101 C1206 111 1222 142 1246 196 C1270 250 1282 283 1282 294 C1282 305 1275 339 1262 396 C1249 453 1230 508 1204 559 L1122 397 C1137 380 1153 350 1170 306 C1187 262 1197 236 1198 227 C1032 174 777 139 549 139 C425 139 329 157 262 193 C195 229 162 276 162 333 C162 390 182 452 221 517 L221 517 Z M768 930 L660 1038 L557 919 L667 809 L768 930 Z M788 688 L682 796 L579 679 L689 569 L788 688 Z " />
<glyph glyph-name="uni067B" unicode="&#x67b;" horiz-adv-x="1316" d="M221 517 C210 538 198 548 186 548 C174 548 168 547 167 546 C98 432 64 336 64 257 C64 178 99 115 169 67 C261 3 362 -10 530 -12 L533 -12 C627 -12 750 3 904 32 C1058 61 1155 84 1196 101 C1206 111 1222 142 1246 196 C1270 250 1282 283 1282 294 C1282 305 1275 339 1262 396 C1249 453 1230 508 1204 559 L1122 397 C1137 380 1153 350 1170 306 C1187 262 1197 236 1198 227 C1032 174 777 139 549 139 C425 139 329 157 262 193 C195 229 162 276 162 333 C162 390 182 452 221 517 L221 517 Z M723 -247 L615 -139 L512 -258 L622 -368 L723 -247 Z M743 -489 L637 -381 L534 -498 L644 -608 L743 -489 Z " />
<glyph glyph-name="uni067C" unicode="&#x67c;" horiz-adv-x="1316" d="M221 517 C210 538 198 548 186 548 C174 548 168 547 167 546 C98 432 64 336 64 257 C64 178 99 115 169 67 C261 3 361 -10 528 -12 C495 -71 479 -117 479 -150 C479 -214 531 -250 599 -250 C637 -250 678 -229 719 -188 C729 -159 734 -137 734 -122 C734 -78 716 -39 681 -3 C747 5 821 16 904 32 C1058 61 1155 84 1196 101 C1206 111 1222 142 1246 196 C1270 250 1282 283 1282 294 C1282 305 1275 339 1262 396 C1249 453 1230 508 1204 559 L1122 397 C1137 380 1153 350 1170 306 C1187 262 1197 236 1198 227 C1032 174 777 139 549 139 C425 139 329 157 262 193 C195 229 162 276 162 333 C162 390 182 452 221 517 L221 517 Z M719 613 L815 517 L914 613 L815 711 L719 613 Z M493 613 L589 517 L688 613 L589 711 L493 613 Z M687 -133 C667 -156 636 -167 593 -167 C550 -167 528 -153 528 -125 C528 -101 545 -66 579 -19 C641 -46 677 -84 687 -133 L687 -133 Z " />
<glyph glyph-name="uni067D" unicode="&#x67d;" horiz-adv-x="1316" d="M221 517 C210 538 198 548 186 548 C174 548 168 547 167 546 C98 432 64 336 64 257 C64 178 99 115 169 67 C261 3 362 -10 530 -12 L533 -12 C627 -12 750 3 904 32 C1058 61 1155 84 1196 101 C1206 111 1222 142 1246 196 C1270 250 1282 283 1282 294 C1282 305 1275 339 1262 396 C1249 453 1230 508 1204 559 L1122 397 C1137 380 1153 350 1170 306 C1187 262 1197 236 1198 227 C1032 174 777 139 549 139 C425 139 329 157 262 193 C195 229 162 276 162 333 C162 390 182 452 221 517 L221 517 Z M674 546 L770 642 L674 737 L579 642 L674 546 Z M788 741 L883 837 L788 932 L692 837 L788 741 Z M561 741 L656 837 L561 932 L465 837 L561 741 Z " />
<glyph glyph-name="uni067E" unicode="&#x67e;" horiz-adv-x="1316" d="M221 517 C210 538 198 548 186 548 C174 548 168 547 167 546 C98 432 64 336 64 257 C64 178 99 115 169 67 C261 3 362 -10 530 -12 L533 -12 C627 -12 750 3 904 32 C1058 61 1155 84 1196 101 C1206 111 1222 142 1246 196 C1270 250 1282 283 1282 294 C1282 305 1275 339 1262 396 C1249 453 1230 508 1204 559 L1122 397 C1137 380 1153 350 1170 306 C1187 262 1197 236 1198 227 C1032 174 777 139 549 139 C425 139 329 157 262 193 C195 229 162 276 162 333 C162 390 182 452 221 517 L221 517 Z M620 -553 L716 -457 L620 -362 L525 -457 L620 -553 Z M734 -358 L829 -262 L734 -167 L638 -262 L734 -358 Z M507 -358 L602 -262 L507 -167 L411 -262 L507 -358 Z " />
<glyph glyph-name="uni067F" unicode="&#x67f;" horiz-adv-x="1316" d="M221 517 C210 538 198 548 186 548 C174 548 168 547 167 546 C98 432 64 336 64 257 C64 178 99 115 169 67 C261 3 362 -10 530 -12 L533 -12 C627 -12 750 3 904 32 C1058 61 1155 84 1196 101 C1206 111 1222 142 1246 196 C1270 250 1282 283 1282 294 C1282 305 1275 339 1262 396 C1249 453 1230 508 1204 559 L1122 397 C1137 380 1153 350 1170 306 C1187 262 1197 236 1198 227 C1032 174 777 139 549 139 C425 139 329 157 262 193 C195 229 162 276 162 333 C162 390 182 452 221 517 L221 517 Z M674 873 L770 966 L674 1064 L579 966 L674 873 Z M781 723 L877 818 L781 916 L686 818 L781 723 Z M573 723 L669 818 L573 916 L476 818 L573 723 Z M681 576 L777 669 L681 766 L586 669 L681 576 Z " />
<glyph glyph-name="uni0680" unicode="&#x680;" horiz-adv-x="1316" d="M221 517 C210 538 198 548 186 548 C174 548 168 547 167 546 C98 432 64 336 64 257 C64 178 99 115 169 67 C261 3 362 -10 530 -12 L533 -12 C627 -12 750 3 904 32 C1058 61 1155 84 1196 101 C1206 111 1222 142 1246 196 C1270 250 1282 283 1282 294 C1282 305 1275 339 1262 396 C1249 453 1230 508 1204 559 L1122 397 C1137 380 1153 350 1170 306 C1187 262 1197 236 1198 227 C1032 174 777 139 549 139 C425 139 329 157 262 193 C195 229 162 276 162 333 C162 390 182 452 221 517 L221 517 Z M601 -340 L697 -247 L601 -149 L506 -247 L601 -340 Z M708 -490 L804 -395 L708 -297 L613 -395 L708 -490 Z M500 -490 L596 -395 L500 -297 L403 -395 L500 -490 Z M608 -637 L704 -544 L608 -447 L513 -544 L608 -637 Z " />
<glyph glyph-name="uni0681" unicode="&#x681;" horiz-adv-x="1011" d="M208 -81 C208 36 276 141 411 236 C541 329 683 378 836 382 L901 519 C863 508 814 502 755 502 C696 502 549 536 316 603 C281 613 264 618 263 618 C229 618 200 593 175 542 L99 384 C113 372 131 366 153 366 C186 442 213 480 236 480 C255 480 294 470 352 450 C410 430 485 413 578 399 L578 395 C434 344 312 271 214 176 C116 81 67 -26 67 -145 C67 -264 119 -357 222 -424 C325 -491 446 -524 586 -524 C726 -524 828 -510 889 -483 L984 -370 C916 -393 816 -404 686 -404 C458 -404 208 -295 208 -81 L208 -81 Z M604 937 L656 979 C632 1016 603 1035 570 1035 C516 1035 461 993 405 910 C405 862 431 829 484 811 L484 808 C458 802 427 789 391 770 L391 707 C408 718 446 735 502 761 C558 787 613 803 666 810 L688 883 C643 876 600 862 562 851 C515 853 481 875 461 916 C488 953 513 971 536 971 C559 971 581 960 604 937 L604 937 Z " />
<glyph glyph-name="uni0682" unicode="&#x682;" horiz-adv-x="1011" d="M208 -81 C208 36 276 141 411 236 C541 329 683 378 836 382 L901 519 C863 508 814 502 755 502 C696 502 549 536 316 603 C281 613 264 618 263 618 C229 618 200 593 175 542 L99 384 C113 372 131 366 153 366 C186 442 213 480 236 480 C255 480 294 470 352 450 C410 430 485 413 578 399 L578 395 C434 344 312 271 214 176 C116 81 67 -26 67 -145 C67 -264 119 -357 222 -424 C325 -491 446 -524 586 -524 C726 -524 828 -510 889 -483 L984 -370 C916 -393 816 -404 686 -404 C458 -404 208 -295 208 -81 L208 -81 Z M588 1077 L480 1185 L377 1066 L487 956 L588 1077 Z M608 835 L502 943 L399 826 L509 716 L608 835 Z " />
<glyph glyph-name="uni0683" unicode="&#x683;" horiz-adv-x="1011" d="M208 -81 C208 36 276 141 411 236 C541 329 683 378 836 382 L901 519 C863 508 814 502 755 502 C696 502 549 536 316 603 C281 613 264 618 263 618 C229 618 200 593 175 542 L99 384 C113 372 131 366 153 366 C186 442 213 480 236 480 C255 480 294 470 352 450 C410 430 485 413 578 399 L578 395 C434 344 312 271 214 176 C116 81 67 -26 67 -145 C67 -264 119 -357 222 -424 C325 -491 446 -524 586 -524 C726 -524 828 -510 889 -483 L984 -370 C916 -393 816 -404 686 -404 C458 -404 208 -295 208 -81 L208 -81 Z M445 -49 L541 -145 L640 -49 L541 49 L445 -49 Z M671 -49 L767 -145 L866 -49 L767 49 L671 -49 Z " />
<glyph glyph-name="uni0684" unicode="&#x684;" horiz-adv-x="1011" d="M208 -81 C208 36 276 141 411 236 C541 329 683 378 836 382 L901 519 C863 508 814 502 755 502 C696 502 549 536 316 603 C281 613 264 618 263 618 C229 618 200 593 175 542 L99 384 C113 372 131 366 153 366 C186 442 213 480 236 480 C255 480 294 470 352 450 C410 430 485 413 578 399 L578 395 C434 344 312 271 214 176 C116 81 67 -26 67 -145 C67 -264 119 -357 222 -424 C325 -491 446 -524 586 -524 C726 -524 828 -510 889 -483 L984 -370 C916 -393 816 -404 686 -404 C458 -404 208 -295 208 -81 L208 -81 Z M729 71 L621 179 L518 60 L628 -50 L729 71 Z M749 -171 L643 -63 L540 -180 L650 -290 L749 -171 Z " />
<glyph glyph-name="uni0685" unicode="&#x685;" horiz-adv-x="1011" d="M208 -81 C208 36 276 141 411 236 C541 329 683 378 836 382 L901 519 C863 508 814 502 755 502 C696 502 549 536 316 603 C281 613 264 618 263 618 C229 618 200 593 175 542 L99 384 C113 372 131 366 153 366 C186 442 213 480 236 480 C255 480 294 470 352 450 C410 430 485 413 578 399 L578 395 C434 344 312 271 214 176 C116 81 67 -26 67 -145 C67 -264 119 -357 222 -424 C325 -491 446 -524 586 -524 C726 -524 828 -510 889 -483 L984 -370 C916 -393 816 -404 686 -404 C458 -404 208 -295 208 -81 L208 -81 Z M594 -16 L690 77 L594 175 L499 77 L594 -16 Z M708 -213 L803 -118 L708 -20 L613 -118 L708 -213 Z M481 -213 L576 -118 L481 -20 L384 -118 L481 -213 Z " />
<glyph glyph-name="uni0686" unicode="&#x686;" horiz-adv-x="1011" d="M208 -81 C208 36 276 141 411 236 C541 329 683 378 836 382 L901 519 C863 508 814 502 755 502 C696 502 549 536 316 603 C281 613 264 618 263 618 C229 618 200 593 175 542 L99 384 C113 372 131 366 153 366 C186 442 213 480 236 480 C255 480 294 470 352 450 C410 430 485 413 578 399 L578 395 C434 344 312 271 214 176 C116 81 67 -26 67 -145 C67 -264 119 -357 222 -424 C325 -491 446 -524 586 -524 C726 -524 828 -510 889 -483 L984 -370 C916 -393 816 -404 686 -404 C458 -404 208 -295 208 -81 L208 -81 Z M613 -271 L709 -175 L613 -80 L518 -175 L613 -271 Z M727 -76 L822 20 L727 115 L631 20 L727 -76 Z M500 -76 L595 20 L500 115 L404 20 L500 -76 Z " />
<glyph glyph-name="uni0687" unicode="&#x687;" horiz-adv-x="1011" d="M208 -81 C208 36 276 141 411 236 C541 329 683 378 836 382 L901 519 C863 508 814 502 755 502 C696 502 549 536 316 603 C281 613 264 618 263 618 C229 618 200 593 175 542 L99 384 C113 372 131 366 153 366 C186 442 213 480 236 480 C255 480 294 470 352 450 C410 430 485 413 578 399 L578 395 C434 344 312 271 214 176 C116 81 67 -26 67 -145 C67 -264 119 -357 222 -424 C325 -491 446 -524 586 -524 C726 -524 828 -510 889 -483 L984 -370 C916 -393 816 -404 686 -404 C458 -404 208 -295 208 -81 L208 -81 Z M592 19 L688 112 L592 210 L497 112 L592 19 Z M699 -131 L795 -36 L699 62 L604 -36 L699 -131 Z M491 -131 L587 -36 L491 62 L394 -36 L491 -131 Z M599 -278 L695 -185 L599 -88 L504 -185 L599 -278 Z " />
<glyph glyph-name="uni0688" unicode="&#x688;" horiz-adv-x="650" d="M249 128 C208 128 174 134 147 146 C144 155 143 171 143 193 L143 220 C132 226 125 229 119 229 C113 229 105 228 94 225 C85 166 80 128 80 112 C80 74 81 48 83 7 C119 -5 156 -11 193 -11 C336 -11 489 34 556 79 C591 175 608 248 608 299 C608 506 490 673 253 800 L214 640 C425 541 530 396 530 205 C487 175 325 128 249 128 L249 128 Z M393 1060 C393 1100 353 1137 312 1137 C290 1137 267 1130 244 1117 C221 1104 193 1078 159 1040 C159 1064 160 1085 160 1103 L160 1169 C160 1194 158 1222 155 1252 C160 1248 168 1245 179 1242 C175 1246 170 1256 164 1271 C154 1295 145 1304 142 1325 L110 1284 C124 1251 131 1186 131 1091 L130 1009 C96 1009 71 1012 55 1017 C72 998 95 979 123 962 L160 962 C283 962 342 985 393 1060 L393 1060 Z M356 1042 C328 1019 281 1008 216 1008 L156 1008 C210 1068 256 1098 294 1098 C323 1098 356 1070 356 1042 L356 1042 Z " />
<glyph glyph-name="uni0689" unicode="&#x689;" horiz-adv-x="682" d="M280 128 C239 128 205 134 178 146 C175 155 174 171 174 193 L174 220 C163 226 156 229 150 229 C144 229 136 228 125 225 C116 166 111 128 111 112 C111 74 112 48 114 7 C137 -1 159 -6 183 -8 C147 -70 130 -118 130 -152 C130 -216 182 -252 250 -252 C288 -252 329 -231 370 -190 C380 -161 385 -139 385 -124 C385 -80 367 -40 331 -3 C438 11 537 45 587 79 C622 175 639 248 639 299 C639 506 521 673 284 800 L245 640 C456 541 561 396 561 205 C518 175 356 128 280 128 L280 128 Z M338 -135 C318 -158 287 -169 244 -169 C201 -169 179 -155 179 -127 C179 -103 196 -68 230 -21 C292 -48 328 -86 338 -135 L338 -135 Z " />
<glyph glyph-name="uni068A" unicode="&#x68a;" horiz-adv-x="682" d="M280 128 C239 128 205 134 178 146 C175 155 174 171 174 193 L174 220 C163 226 156 229 150 229 C144 229 136 228 125 225 C116 166 111 128 111 112 C111 74 112 48 114 7 C150 -5 187 -11 224 -11 C367 -11 520 34 587 79 C622 175 639 248 639 299 C639 506 521 673 284 800 L245 640 C456 541 561 396 561 205 C518 175 356 128 280 128 L280 128 Z M289 -336 L397 -228 L278 -126 L168 -235 L289 -336 Z " />
<glyph glyph-name="uni068B" unicode="&#x68b;" horiz-adv-x="682" d="M280 128 C239 128 205 134 178 146 C175 155 174 171 174 193 L174 220 C163 226 156 229 150 229 C144 229 136 228 125 225 C116 166 111 128 111 112 C111 74 112 48 114 7 C150 -5 187 -11 224 -11 C367 -11 520 34 587 79 C622 175 639 248 639 299 C639 506 521 673 284 800 L245 640 C456 541 561 396 561 205 C518 175 356 128 280 128 L280 128 Z M453 994 C453 1034 413 1071 372 1071 C350 1071 327 1064 304 1051 C281 1038 253 1012 219 974 C219 998 220 1019 220 1037 L220 1103 C220 1128 218 1156 215 1186 C220 1182 228 1179 239 1176 C235 1180 230 1190 224 1205 C214 1229 205 1238 202 1259 L170 1218 C184 1185 191 1120 191 1025 L190 943 C156 943 131 946 115 951 C132 932 155 913 183 896 L220 896 C343 896 402 919 453 994 L453 994 Z M416 976 C388 953 341 942 276 942 L216 942 C270 1002 316 1032 354 1032 C383 1032 416 1004 416 976 L416 976 Z M243 -390 L351 -282 L232 -180 L122 -289 L243 -390 Z " />
<glyph glyph-name="uni068C" unicode="&#x68c;" horiz-adv-x="682" d="M280 128 C239 128 205 134 178 146 C175 155 174 171 174 193 L174 220 C163 226 156 229 150 229 C144 229 136 228 125 225 C116 166 111 128 111 112 C111 74 112 48 114 7 C150 -5 187 -11 224 -11 C367 -11 520 34 587 79 C622 175 639 248 639 299 C639 506 521 673 284 800 L245 640 C456 541 561 396 561 205 C518 175 356 128 280 128 L280 128 Z M63 1008 L159 912 L258 1008 L159 1106 L63 1008 Z M289 1008 L385 912 L484 1008 L385 1106 L289 1008 Z " />
<glyph glyph-name="uni068D" unicode="&#x68d;" horiz-adv-x="682" d="M280 128 C239 128 205 134 178 146 C175 155 174 171 174 193 L174 220 C163 226 156 229 150 229 C144 229 136 228 125 225 C116 166 111 128 111 112 C111 74 112 48 114 7 C150 -5 187 -11 224 -11 C367 -11 520 34 587 79 C622 175 639 248 639 299 C639 506 521 673 284 800 L245 640 C456 541 561 396 561 205 C518 175 356 128 280 128 L280 128 Z M131 -249 L227 -345 L326 -249 L227 -151 L131 -249 Z M357 -249 L453 -345 L552 -249 L453 -151 L357 -249 Z " />
<glyph glyph-name="uni068E" unicode="&#x68e;" horiz-adv-x="682" d="M280 128 C239 128 205 134 178 146 C175 155 174 171 174 193 L174 220 C163 226 156 229 150 229 C144 229 136 228 125 225 C116 166 111 128 111 112 C111 74 112 48 114 7 C150 -5 187 -11 224 -11 C367 -11 520 34 587 79 C622 175 639 248 639 299 C639 506 521 673 284 800 L245 640 C456 541 561 396 561 205 C518 175 356 128 280 128 L280 128 Z M273 1110 L369 1203 L273 1301 L178 1203 L273 1110 Z M387 913 L482 1008 L387 1106 L292 1008 L387 913 Z M160 913 L255 1008 L160 1106 L63 1008 L160 913 Z " />
<glyph glyph-name="uni068F" unicode="&#x68f;" horiz-adv-x="682" d="M280 128 C239 128 205 134 178 146 C175 155 174 171 174 193 L174 220 C163 226 156 229 150 229 C144 229 136 228 125 225 C116 166 111 128 111 112 C111 74 112 48 114 7 C150 -5 187 -11 224 -11 C367 -11 520 34 587 79 C622 175 639 248 639 299 C639 506 521 673 284 800 L245 640 C456 541 561 396 561 205 C518 175 356 128 280 128 L280 128 Z M299 893 L395 989 L299 1084 L204 989 L299 893 Z M413 1088 L508 1184 L413 1279 L317 1184 L413 1088 Z M186 1088 L281 1184 L186 1279 L90 1184 L186 1088 Z " />
<glyph glyph-name="uni0690" unicode="&#x690;" horiz-adv-x="682" d="M280 128 C239 128 205 134 178 146 C175 155 174 171 174 193 L174 220 C163 226 156 229 150 229 C144 229 136 228 125 225 C116 166 111 128 111 112 C111 74 112 48 114 7 C150 -5 187 -11 224 -11 C367 -11 520 34 587 79 C622 175 639 248 639 299 C639 506 521 673 284 800 L245 640 C456 541 561 396 561 205 C518 175 356 128 280 128 L280 128 Z M289 1196 L380 1284 L289 1377 L199 1284 L289 1196 Z M390 1054 L481 1144 L390 1236 L300 1144 L390 1054 Z M193 1054 L284 1144 L193 1236 L101 1144 L193 1054 Z M296 915 L387 1003 L296 1094 L206 1003 L296 915 Z " />
<glyph glyph-name="uni0691" unicode="&#x691;" horiz-adv-x="554" d="M11 -425 C27 -436 55 -450 94 -468 C133 -486 174 -495 219 -498 C414 -315 512 -129 512 62 C512 83 506 115 494 156 C462 267 422 353 375 416 L312 236 C388 165 429 86 436 0 C393 -160 251 -302 11 -425 L11 -425 Z M476 649 C476 689 436 726 395 726 C373 726 350 719 327 706 C304 693 276 667 242 629 C242 653 243 674 243 692 L243 758 C243 783 241 811 238 841 C243 837 251 834 262 831 C258 835 253 845 247 860 C237 884 228 893 225 914 L193 873 C207 840 214 775 214 680 L213 598 C179 598 154 601 138 606 C155 587 178 568 206 551 L243 551 C366 551 425 574 476 649 L476 649 Z M439 631 C411 608 364 597 299 597 L239 597 C293 657 339 687 377 687 C406 687 439 659 439 631 L439 631 Z " />
<glyph glyph-name="uni0692" unicode="&#x692;" horiz-adv-x="554" d="M11 -425 C27 -436 55 -450 94 -468 C133 -486 174 -495 219 -498 C414 -315 512 -129 512 62 C512 83 506 115 494 156 C462 267 422 353 375 416 L312 236 C388 165 429 86 436 0 C393 -160 251 -302 11 -425 L11 -425 Z M528 844 L431 834 C401 788 377 717 361 622 C340 720 311 789 276 828 L177 836 C261 765 320 648 347 526 L373 529 C406 653 448 763 528 844 L528 844 Z " />
<glyph glyph-name="uni0693" unicode="&#x693;" horiz-adv-x="554" d="M11 -425 C27 -436 55 -450 94 -468 C122 -481 152 -489 183 -494 C156 -544 143 -584 143 -614 C143 -678 195 -714 263 -714 C301 -714 342 -693 383 -652 C393 -623 398 -601 398 -586 C398 -524 363 -470 293 -424 C439 -265 512 -103 512 62 C512 83 506 115 494 156 C462 267 422 353 375 416 L312 236 C388 165 429 86 436 0 C393 -160 251 -302 11 -425 L11 -425 Z M351 -597 C331 -620 300 -631 257 -631 C214 -631 192 -617 192 -589 C192 -565 209 -530 243 -483 C305 -510 341 -548 351 -597 L351 -597 Z " />
<glyph glyph-name="uni0694" unicode="&#x694;" horiz-adv-x="554" d="M11 -425 C27 -436 55 -450 94 -468 C133 -486 174 -495 219 -498 C414 -315 512 -129 512 62 C512 83 506 115 494 156 C462 267 422 353 375 416 L312 236 C388 165 429 86 436 0 C393 -160 251 -302 11 -425 L11 -425 Z M162 -778 L270 -670 L151 -568 L41 -677 L162 -778 Z " />
<glyph glyph-name="uni0695" unicode="&#x695;" horiz-adv-x="554" d="M11 -425 C27 -436 55 -450 94 -468 C133 -486 174 -495 219 -498 C414 -315 512 -129 512 62 C512 83 506 115 494 156 C462 267 422 353 375 416 L312 236 C388 165 429 86 436 0 C393 -160 251 -302 11 -425 L11 -425 Z M357 -580 L268 -589 C241 -630 219 -694 204 -779 C185 -691 159 -629 127 -594 L36 -587 C113 -651 167 -756 191 -865 L215 -862 C245 -751 284 -653 357 -580 L357 -580 Z " />
<glyph glyph-name="uni0696" unicode="&#x696;" horiz-adv-x="554" d="M11 -425 C27 -436 55 -450 94 -468 C133 -486 174 -495 219 -498 C414 -315 512 -129 512 62 C512 83 506 115 494 156 C462 267 422 353 375 416 L312 236 C388 165 429 86 436 0 C393 -160 251 -302 11 -425 L11 -425 Z M222 -791 L330 -683 L211 -581 L101 -690 L222 -791 Z M367 534 L475 642 L356 744 L246 635 L367 534 Z " />
<glyph glyph-name="uni0697" unicode="&#x697;" horiz-adv-x="554" d="M11 -425 C27 -436 55 -450 94 -468 C133 -486 174 -495 219 -498 C414 -315 512 -129 512 62 C512 83 506 115 494 156 C462 267 422 353 375 416 L312 236 C388 165 429 86 436 0 C393 -160 251 -302 11 -425 L11 -425 Z M125 636 L221 540 L320 636 L221 734 L125 636 Z M351 636 L447 540 L546 636 L447 734 L351 636 Z " />
<glyph glyph-name="uni0698" unicode="&#x698;" horiz-adv-x="554" d="M11 -425 C27 -436 55 -450 94 -468 C133 -486 174 -495 219 -498 C414 -315 512 -129 512 62 C512 83 506 115 494 156 C462 267 422 353 375 416 L312 236 C388 165 429 86 436 0 C393 -160 251 -302 11 -425 L11 -425 Z M319 745 L415 838 L319 936 L224 838 L319 745 Z M433 548 L528 643 L433 741 L338 643 L433 548 Z M206 548 L301 643 L206 741 L109 643 L206 548 Z " />
<glyph glyph-name="uni0699" unicode="&#x699;" horiz-adv-x="554" d="M11 -425 C27 -436 55 -450 94 -468 C133 -486 174 -495 219 -498 C414 -315 512 -129 512 62 C512 83 506 115 494 156 C462 267 422 353 375 416 L312 236 C388 165 429 86 436 0 C393 -160 251 -302 11 -425 L11 -425 Z M300 823 L396 916 L300 1014 L205 916 L300 823 Z M407 673 L503 768 L407 866 L312 768 L407 673 Z M199 673 L295 768 L199 866 L102 768 L199 673 Z M307 526 L403 619 L307 716 L212 619 L307 526 Z " />
<glyph glyph-name="uni069A" unicode="&#x69a;" horiz-adv-x="1735" d="M1112 139 C1068 139 1033 156 1006 189 C975 230 942 299 905 395 L843 213 C914 84 950 -45 950 -175 L950 -182 C918 -209 882 -233 842 -256 C701 -335 570 -374 451 -375 C292 -375 180 -302 180 -151 C180 -60 224 71 263 132 C244 151 223 160 202 160 C112 2 67 -127 67 -226 C67 -426 213 -524 412 -524 C512 -524 618 -499 728 -450 C838 -401 918 -354 968 -308 C1007 -229 1027 -157 1027 -93 C1027 -61 1024 -20 1018 31 C1050 10 1082 0 1114 0 C1199 0 1256 43 1283 129 L1287 129 C1303 43 1357 0 1448 0 C1581 0 1667 154 1694 275 C1685 372 1651 466 1591 559 L1517 384 C1567 336 1597 287 1608 238 C1577 172 1516 139 1427 139 C1367 139 1323 191 1323 253 C1323 286 1325 318 1328 349 C1316 357 1304 361 1292 361 C1280 361 1269 359 1260 355 C1260 243 1215 139 1112 139 L1112 139 Z M1293 610 L1401 718 L1282 820 L1172 711 L1293 610 Z M1294 -405 L1402 -297 L1283 -195 L1173 -304 L1294 -405 Z " />
<glyph glyph-name="uni069B" unicode="&#x69b;" horiz-adv-x="1735" d="M1112 139 C1068 139 1033 156 1006 189 C975 230 942 299 905 395 L843 213 C914 84 950 -45 950 -175 L950 -182 C918 -209 882 -233 842 -256 C701 -335 570 -374 451 -375 C292 -375 180 -302 180 -151 C180 -60 224 71 263 132 C244 151 223 160 202 160 C112 2 67 -127 67 -226 C67 -426 213 -524 412 -524 C512 -524 618 -499 728 -450 C838 -401 918 -354 968 -308 C1007 -229 1027 -157 1027 -93 C1027 -61 1024 -20 1018 31 C1050 10 1082 0 1114 0 C1199 0 1256 43 1283 129 L1287 129 C1303 43 1357 0 1448 0 C1581 0 1667 154 1694 275 C1685 372 1651 466 1591 559 L1517 384 C1567 336 1597 287 1608 238 C1577 172 1516 139 1427 139 C1367 139 1323 191 1323 253 C1323 286 1325 318 1328 349 C1316 357 1304 361 1292 361 C1280 361 1269 359 1260 355 C1260 243 1215 139 1112 139 L1112 139 Z M1317 -575 L1413 -479 L1317 -384 L1222 -479 L1317 -575 Z M1431 -380 L1526 -284 L1431 -189 L1335 -284 L1431 -380 Z M1204 -380 L1299 -284 L1204 -189 L1108 -284 L1204 -380 Z " />
<glyph glyph-name="uni069C" unicode="&#x69c;" horiz-adv-x="1735" d="M1112 139 C1068 139 1033 156 1006 189 C975 230 942 299 905 395 L843 213 C914 84 950 -45 950 -175 L950 -182 C918 -209 882 -233 842 -256 C701 -335 570 -374 451 -375 C292 -375 180 -302 180 -151 C180 -60 224 71 263 132 C244 151 223 160 202 160 C112 2 67 -127 67 -226 C67 -426 213 -524 412 -524 C512 -524 618 -499 728 -450 C838 -401 918 -354 968 -308 C1007 -229 1027 -157 1027 -93 C1027 -61 1024 -20 1018 31 C1050 10 1082 0 1114 0 C1199 0 1256 43 1283 129 L1287 129 C1303 43 1357 0 1448 0 C1581 0 1667 154 1694 275 C1685 372 1651 466 1591 559 L1517 384 C1567 336 1597 287 1608 238 C1577 172 1516 139 1427 139 C1367 139 1323 191 1323 253 C1323 286 1325 318 1328 349 C1316 357 1304 361 1292 361 C1280 361 1269 359 1260 355 C1260 243 1215 139 1112 139 L1112 139 Z M1314 -566 L1410 -470 L1314 -375 L1219 -470 L1314 -566 Z M1428 -371 L1523 -275 L1428 -180 L1332 -275 L1428 -371 Z M1201 -371 L1296 -275 L1201 -180 L1105 -275 L1201 -371 Z M1270 759 L1366 852 L1270 950 L1175 852 L1270 759 Z M1384 562 L1479 657 L1384 755 L1289 657 L1384 562 Z M1157 562 L1252 657 L1157 755 L1060 657 L1157 562 Z " />
<glyph glyph-name="uni069D" unicode="&#x69d;" horiz-adv-x="1954" d="M1797 247 C1780 232 1756 218 1727 206 C1621 161 1502 139 1370 139 L1182 139 C1346 325 1489 418 1610 418 C1700 418 1797 335 1797 247 L1797 247 Z M180 -151 C180 -60 224 71 263 132 C244 151 223 160 202 160 C112 2 67 -127 67 -226 C67 -426 213 -524 412 -524 C512 -524 618 -499 728 -450 C838 -401 918 -354 968 -308 C1007 -229 1027 -157 1027 -93 C1027 -61 1024 -20 1018 31 C1050 10 1102 0 1173 0 C1371 0 1522 21 1625 62 C1742 106 1837 185 1910 299 C1910 360 1886 414 1838 464 C1790 514 1732 539 1662 539 C1592 539 1522 517 1451 473 C1354 410 1236 299 1097 139 C1062 139 1030 156 1003 192 C976 228 943 296 905 395 L843 213 C914 84 950 -45 950 -175 L950 -182 C918 -209 882 -233 842 -256 C701 -335 570 -374 451 -375 C292 -375 180 -302 180 -151 L180 -151 Z M1176 -309 L1272 -405 L1371 -309 L1272 -211 L1176 -309 Z M1402 -309 L1498 -405 L1597 -309 L1498 -211 L1402 -309 Z " />
<glyph glyph-name="uni069E" unicode="&#x69e;" horiz-adv-x="1954" d="M1797 247 C1780 232 1756 218 1727 206 C1621 161 1502 139 1370 139 L1182 139 C1346 325 1489 418 1610 418 C1700 418 1797 335 1797 247 L1797 247 Z M180 -151 C180 -60 224 71 263 132 C244 151 223 160 202 160 C112 2 67 -127 67 -226 C67 -426 213 -524 412 -524 C512 -524 618 -499 728 -450 C838 -401 918 -354 968 -308 C1007 -229 1027 -157 1027 -93 C1027 -61 1024 -20 1018 31 C1050 10 1102 0 1173 0 C1371 0 1522 21 1625 62 C1742 106 1837 185 1910 299 C1910 360 1886 414 1838 464 C1790 514 1732 539 1662 539 C1592 539 1522 517 1451 473 C1354 410 1236 299 1097 139 C1062 139 1030 156 1003 192 C976 228 943 296 905 395 L843 213 C914 84 950 -45 950 -175 L950 -182 C918 -209 882 -233 842 -256 C701 -335 570 -374 451 -375 C292 -375 180 -302 180 -151 L180 -151 Z M1206 750 L1302 843 L1206 941 L1111 843 L1206 750 Z M1320 553 L1415 648 L1320 746 L1225 648 L1320 553 Z M1093 553 L1188 648 L1093 746 L996 648 L1093 553 Z " />
<glyph glyph-name="uni069F" unicode="&#x69f;" horiz-adv-x="1157" d="M1103 299 C1103 360 1078 414 1030 464 C982 514 923 539 854 539 C785 539 716 518 646 477 C576 436 488 357 384 241 C384 525 374 784 353 1018 C376 1004 401 993 427 986 C395 1031 337 1174 315 1242 L216 1118 C238 1067 256 945 272 754 C288 563 296 359 296 141 C205 141 128 151 63 170 C129 98 199 41 274 0 L392 0 C769 0 952 70 1103 299 L1103 299 Z M559 139 L377 139 C540 325 681 418 802 418 C893 418 989 335 989 247 C912 181 711 139 559 139 L559 139 Z M755 976 L851 1069 L755 1167 L660 1069 L755 976 Z M869 779 L964 874 L869 972 L774 874 L869 779 Z M642 779 L737 874 L642 972 L545 874 L642 779 Z " />
<glyph glyph-name="uni06A0" unicode="&#x6a0;" horiz-adv-x="917" d="M62 -184 C62 -411 240 -524 597 -524 C694 -524 758 -517 789 -504 L891 -385 C856 -404 796 -414 712 -414 C454 -414 193 -344 193 -120 C193 -23 244 64 346 140 C448 216 584 264 752 283 L808 433 C597 368 482 334 465 330 C410 342 364 370 326 415 C288 460 270 503 270 546 C333 599 424 626 545 626 C586 626 633 619 685 605 C615 699 539 746 458 746 C404 746 352 723 300 676 C248 629 209 564 182 481 C182 368 238 287 351 239 C222 158 62 -1 62 -184 L62 -184 Z M452 1076 L548 1169 L452 1267 L357 1169 L452 1076 Z M566 879 L661 974 L566 1072 L471 974 L566 879 Z M339 879 L434 974 L339 1072 L242 974 L339 879 Z " />
<glyph glyph-name="uni06A1" unicode="&#x6a1;" horiz-adv-x="1228" d="M1186 345 C1186 550 1108 671 952 707 C857 632 810 535 810 416 C810 390 813 358 820 319 C859 290 910 275 973 275 C1036 275 1086 290 1123 319 C1121 263 1110 218 1091 183 C1067 167 1003 152 900 140 C797 128 656 122 478 122 C385 122 309 138 248 170 C193 198 158 232 158 311 C158 348 175 396 210 455 C202 473 193 482 182 482 C171 482 165 481 164 480 C103 381 73 298 73 228 C73 158 106 100 171 56 C236 12 332 -10 457 -10 C793 -10 1018 20 1133 79 C1168 167 1186 256 1186 345 L1186 345 Z M1109 429 C1080 408 1040 397 988 397 C936 397 900 408 879 429 C879 496 896 544 931 574 C1010 574 1109 503 1109 429 L1109 429 Z " />
<glyph glyph-name="uni06A2" unicode="&#x6a2;" horiz-adv-x="1228" d="M1186 345 C1186 550 1108 671 952 707 C857 632 810 535 810 416 C810 390 813 358 820 319 C859 290 910 275 973 275 C1036 275 1086 290 1123 319 C1121 263 1110 218 1091 183 C1067 167 1003 152 900 140 C797 128 656 122 478 122 C385 122 309 138 248 170 C193 198 158 232 158 311 C158 348 175 396 210 455 C202 473 193 482 182 482 C171 482 165 481 164 480 C103 381 73 298 73 228 C73 158 106 100 171 56 C236 12 332 -10 457 -10 C793 -10 1018 20 1133 79 C1168 167 1186 256 1186 345 L1186 345 Z M1109 429 C1080 408 1040 397 988 397 C936 397 900 408 879 429 C879 496 896 544 931 574 C1010 574 1109 503 1109 429 L1109 429 Z M965 -300 L1073 -192 L954 -90 L844 -199 L965 -300 Z " />
<glyph glyph-name="uni06A3" unicode="&#x6a3;" horiz-adv-x="1228" d="M1186 345 C1186 550 1108 671 952 707 C857 632 810 535 810 416 C810 390 813 358 820 319 C859 290 910 275 973 275 C1036 275 1086 290 1123 319 C1121 263 1110 218 1091 183 C1067 167 1003 152 900 140 C797 128 656 122 478 122 C385 122 309 138 248 170 C193 198 158 232 158 311 C158 348 175 396 210 455 C202 473 193 482 182 482 C171 482 165 481 164 480 C103 381 73 298 73 228 C73 158 106 100 171 56 C236 12 332 -10 457 -10 C793 -10 1018 20 1133 79 C1168 167 1186 256 1186 345 L1186 345 Z M1109 429 C1080 408 1040 397 988 397 C936 397 900 408 879 429 C879 496 896 544 931 574 C1010 574 1109 503 1109 429 L1109 429 Z M956 818 L1064 926 L945 1028 L835 919 L956 818 Z M985 -315 L1093 -207 L974 -105 L864 -214 L985 -315 Z " />
<glyph glyph-name="uni06A4" unicode="&#x6a4;" horiz-adv-x="1228" d="M1186 345 C1186 550 1108 671 952 707 C857 632 810 535 810 416 C810 390 813 358 820 319 C859 290 910 275 973 275 C1036 275 1086 290 1123 319 C1121 263 1110 218 1091 183 C1067 167 1003 152 900 140 C797 128 656 122 478 122 C385 122 309 138 248 170 C193 198 158 232 158 311 C158 348 175 396 210 455 C202 473 193 482 182 482 C171 482 165 481 164 480 C103 381 73 298 73 228 C73 158 106 100 171 56 C236 12 332 -10 457 -10 C793 -10 1018 20 1133 79 C1168 167 1186 256 1186 345 L1186 345 Z M1109 429 C1080 408 1040 397 988 397 C936 397 900 408 879 429 C879 496 896 544 931 574 C1010 574 1109 503 1109 429 L1109 429 Z M959 1020 L1055 1113 L959 1211 L864 1113 L959 1020 Z M1073 823 L1168 918 L1073 1016 L978 918 L1073 823 Z M846 823 L941 918 L846 1016 L749 918 L846 823 Z " />
<glyph glyph-name="uni06A5" unicode="&#x6a5;" horiz-adv-x="1228" d="M1186 345 C1186 550 1108 671 952 707 C857 632 810 535 810 416 C810 390 813 358 820 319 C859 290 910 275 973 275 C1036 275 1086 290 1123 319 C1121 263 1110 218 1091 183 C1067 167 1003 152 900 140 C797 128 656 122 478 122 C385 122 309 138 248 170 C193 198 158 232 158 311 C158 348 175 396 210 455 C202 473 193 482 182 482 C171 482 165 481 164 480 C103 381 73 298 73 228 C73 158 106 100 171 56 C236 12 332 -10 457 -10 C793 -10 1018 20 1133 79 C1168 167 1186 256 1186 345 L1186 345 Z M1109 429 C1080 408 1040 397 988 397 C936 397 900 408 879 429 C879 496 896 544 931 574 C1010 574 1109 503 1109 429 L1109 429 Z M973 -489 L1069 -393 L973 -298 L878 -393 L973 -489 Z M1087 -294 L1182 -198 L1087 -103 L991 -198 L1087 -294 Z M860 -294 L955 -198 L860 -103 L764 -198 L860 -294 Z " />
<glyph glyph-name="uni06A6" unicode="&#x6a6;" horiz-adv-x="1228" d="M1186 345 C1186 550 1108 671 952 707 C857 632 810 535 810 416 C810 390 813 358 820 319 C859 290 910 275 973 275 C1036 275 1086 290 1123 319 C1121 263 1110 218 1091 183 C1067 167 1003 152 900 140 C797 128 656 122 478 122 C385 122 309 138 248 170 C193 198 158 232 158 311 C158 348 175 396 210 455 C202 473 193 482 182 482 C171 482 165 481 164 480 C103 381 73 298 73 228 C73 158 106 100 171 56 C236 12 332 -10 457 -10 C793 -10 1018 20 1133 79 C1168 167 1186 256 1186 345 L1186 345 Z M1109 429 C1080 408 1040 397 988 397 C936 397 900 408 879 429 C879 496 896 544 931 574 C1010 574 1109 503 1109 429 L1109 429 Z M947 1085 L1038 1173 L947 1266 L857 1173 L947 1085 Z M1048 943 L1139 1033 L1048 1125 L958 1033 L1048 943 Z M851 943 L942 1033 L851 1125 L759 1033 L851 943 Z M954 804 L1045 892 L954 983 L864 892 L954 804 Z " />
<glyph glyph-name="uni06A7" unicode="&#x6a7;" horiz-adv-x="1135" d="M1002 292 C969 267 922 254 862 254 C802 254 763 269 746 299 C746 370 767 422 810 456 C857 456 902 437 942 400 C982 363 1002 327 1002 292 L1002 292 Z M180 -38 C180 57 223 181 263 247 C243 265 223 274 202 274 C112 115 67 -14 67 -112 C67 -318 217 -408 427 -410 L432 -410 C543 -410 662 -379 789 -318 C916 -257 1004 -191 1052 -121 C1077 -60 1089 30 1089 151 C1089 414 1001 566 825 605 C721 521 669 412 669 277 C669 245 672 208 678 165 C720 131 778 114 852 114 C926 114 981 133 1018 170 L1018 104 C1018 69 1013 26 1002 -27 C963 -62 921 -94 874 -122 C723 -213 582 -259 451 -261 C293 -261 180 -188 180 -38 L180 -38 Z M782 733 L890 841 L771 943 L661 834 L782 733 Z " />
<glyph glyph-name="uni06A8" unicode="&#x6a8;" horiz-adv-x="1135" d="M1002 292 C969 267 922 254 862 254 C802 254 763 269 746 299 C746 370 767 422 810 456 C857 456 902 437 942 400 C982 363 1002 327 1002 292 L1002 292 Z M180 -38 C180 57 223 181 263 247 C243 265 223 274 202 274 C112 115 67 -14 67 -112 C67 -318 217 -408 427 -410 L432 -410 C543 -410 662 -379 789 -318 C916 -257 1004 -191 1052 -121 C1077 -60 1089 30 1089 151 C1089 414 1001 566 825 605 C721 521 669 412 669 277 C669 245 672 208 678 165 C720 131 778 114 852 114 C926 114 981 133 1018 170 L1018 104 C1018 69 1013 26 1002 -27 C963 -62 921 -94 874 -122 C723 -213 582 -259 451 -261 C293 -261 180 -188 180 -38 L180 -38 Z M830 876 L926 969 L830 1067 L735 969 L830 876 Z M944 679 L1039 774 L944 872 L849 774 L944 679 Z M717 679 L812 774 L717 872 L620 774 L717 679 Z " />
<glyph glyph-name="uni06A9" unicode="&#x6a9;" horiz-adv-x="1507" d="M239 517 C229 538 218 548 206 548 C194 548 187 547 186 546 C117 430 83 333 83 256 C83 135 167 53 334 10 C391 -5 467 -12 562 -12 C928 -12 1157 50 1249 173 C1262 221 1273 288 1280 375 C1273 404 1262 432 1246 460 C1197 547 1085 639 912 737 C947 764 1037 820 1182 906 C1327 992 1436 1046 1507 1071 L1577 1242 C1528 1225 1429 1176 1280 1095 C1131 1014 991 927 860 834 L838 634 C977 559 1073 493 1126 438 C1179 383 1206 327 1209 270 C1144 183 934 139 578 139 C389 139 266 178 207 256 C189 280 180 312 180 352 C180 392 200 447 239 517 L239 517 Z " />
<glyph glyph-name="uni06AA" unicode="&#x6aa;" horiz-adv-x="2017" d="M259 517 C248 538 236 548 224 548 C212 548 206 547 205 546 C136 433 102 338 102 258 C102 178 136 115 203 69 C270 23 380 0 532 0 L548 0 C553 0 559 0 566 1 C1100 14 1537 35 1877 62 L1952 224 C1963 258 1969 292 1969 325 C1969 358 1959 389 1938 418 C1901 470 1835 500 1741 509 C1577 512 1026 523 890 528 C852 530 751 530 751 559 C751 560 751 562 752 564 C753 575 764 587 786 600 C875 654 1078 723 1393 806 L1487 971 C1480 968 1464 963 1440 956 C1024 827 781 724 710 647 C687 601 670 552 658 499 C659 475 674 457 703 446 C753 427 856 417 1012 416 C1168 415 1306 414 1427 414 C1548 414 1633 408 1683 399 C1807 385 1860 321 1866 192 C1373 158 941 140 568 139 C511 140 459 145 414 154 C271 185 200 245 200 335 C200 391 220 452 259 517 L259 517 Z " />
<glyph glyph-name="uni06AB" unicode="&#x6ab;" horiz-adv-x="1608" d="M239 517 C229 538 218 548 206 548 C194 548 187 547 186 546 C117 430 83 333 83 256 C83 135 167 53 334 10 C391 -5 467 -12 562 -12 C928 -12 1157 50 1249 173 C1262 221 1273 288 1280 375 C1273 404 1262 432 1246 460 C1197 547 1085 639 912 737 C947 764 1037 820 1182 906 C1193 912 1203 918 1213 924 C1198 889 1190 861 1190 838 C1190 774 1242 738 1310 738 C1348 738 1389 759 1430 800 C1440 829 1445 851 1445 866 C1445 919 1419 967 1367 1008 C1423 1037 1470 1058 1507 1071 L1577 1242 C1528 1225 1429 1176 1280 1095 C1131 1014 991 927 860 834 L838 634 C977 559 1073 493 1126 438 C1179 383 1206 327 1209 270 C1144 183 934 139 578 139 C389 139 266 178 207 256 C189 280 180 312 180 352 C180 392 200 447 239 517 L239 517 Z M1289 967 C1289 968 1290 968 1291 969 C1352 942 1388 904 1398 855 C1378 832 1347 821 1304 821 C1261 821 1239 835 1239 863 C1239 887 1256 921 1289 967 L1289 967 Z " />
<glyph glyph-name="uni06AC" unicode="&#x6ac;" horiz-adv-x="1212" d="M638 571 C577 536 500 519 407 519 L373 409 C515 424 617 459 678 514 L698 645 C638 701 569 739 492 759 C555 792 633 815 724 827 L764 950 C622 913 518 869 452 818 L436 685 C515 662 606 607 638 571 L638 571 Z M1140 986 C1120 1020 1043 1199 1029 1242 L932 1118 C941 1093 951 1051 960 994 C989 811 1006 545 1011 196 C983 190 914 179 802 162 C690 145 575 137 457 137 C339 137 232 153 136 184 L76 22 C193 0 310 -11 427 -11 L455 -11 C470 -11 495 -9 532 -6 C715 10 874 34 1011 65 C1039 108 1068 167 1097 241 C1097 534 1087 793 1067 1018 C1096 1003 1121 992 1140 986 L1140 986 Z M561 1045 L669 1153 L550 1255 L440 1146 L561 1045 Z " />
<glyph glyph-name="uni06AD" unicode="&#x6ad;" horiz-adv-x="1212" d="M638 571 C577 536 500 519 407 519 L373 409 C515 424 617 459 678 514 L698 645 C638 701 569 739 492 759 C555 792 633 815 724 827 L764 950 C622 913 518 869 452 818 L436 685 C515 662 606 607 638 571 L638 571 Z M1140 986 C1120 1020 1043 1199 1029 1242 L932 1118 C941 1093 951 1051 960 994 C989 811 1006 545 1011 196 C983 190 914 179 802 162 C690 145 575 137 457 137 C339 137 232 153 136 184 L76 22 C193 0 310 -11 427 -11 L455 -11 C470 -11 495 -9 532 -6 C715 10 874 34 1011 65 C1039 108 1068 167 1097 241 C1097 534 1087 793 1067 1018 C1096 1003 1121 992 1140 986 L1140 986 Z M569 1266 L665 1359 L569 1457 L474 1359 L569 1266 Z M683 1069 L778 1164 L683 1262 L588 1164 L683 1069 Z M456 1069 L551 1164 L456 1262 L359 1164 L456 1069 Z " />
<glyph glyph-name="uni06AE" unicode="&#x6ae;" horiz-adv-x="1212" d="M638 571 C577 536 500 519 407 519 L373 409 C515 424 617 459 678 514 L698 645 C638 701 569 739 492 759 C555 792 633 815 724 827 L764 950 C622 913 518 869 452 818 L436 685 C515 662 606 607 638 571 L638 571 Z M1140 986 C1120 1020 1043 1199 1029 1242 L932 1118 C941 1093 951 1051 960 994 C989 811 1006 545 1011 196 C983 190 914 179 802 162 C690 145 575 137 457 137 C339 137 232 153 136 184 L76 22 C193 0 310 -11 427 -11 L455 -11 C470 -11 495 -9 532 -6 C715 10 874 34 1011 65 C1039 108 1068 167 1097 241 C1097 534 1087 793 1067 1018 C1096 1003 1121 992 1140 986 L1140 986 Z M616 -518 L712 -422 L616 -327 L521 -422 L616 -518 Z M730 -323 L825 -227 L730 -132 L634 -227 L730 -323 Z M503 -323 L598 -227 L503 -132 L407 -227 L503 -323 Z " />
<glyph glyph-name="uni06AF" unicode="&#x6af;" horiz-adv-x="1468" d="M903 1016 L889 935 C913 947 942 961 977 976 C1218 1083 1377 1144 1453 1159 L1510 1256 C1495 1253 1474 1247 1449 1239 C1268 1182 1086 1107 903 1016 L903 1016 Z M239 517 C229 538 218 548 206 548 C194 548 187 547 186 546 C117 430 83 333 83 256 C83 135 167 53 334 10 C391 -5 467 -12 562 -12 C928 -12 1157 50 1249 173 C1262 220 1272 287 1280 375 C1273 403 1263 431 1248 459 C1200 548 1087 634 910 717 C943 735 1024 767 1154 814 C1284 861 1390 893 1472 910 L1577 1074 C1367 1021 1070 911 858 813 L838 620 C907 590 965 559 1012 528 C1139 444 1204 358 1209 270 C1144 183 934 139 578 139 C389 139 266 178 207 256 C189 280 180 312 180 352 C180 392 200 447 239 517 L239 517 Z " />
<glyph glyph-name="uni06B0" unicode="&#x6b0;" horiz-adv-x="1468" d="M239 517 C229 538 218 548 206 548 C194 548 187 547 186 546 C117 430 83 333 83 256 C83 135 167 53 334 10 C391 -5 467 -12 562 -12 C928 -12 1157 50 1249 173 C1262 220 1272 287 1280 375 C1273 403 1263 431 1248 459 C1200 548 1087 634 910 717 C943 735 1024 767 1154 814 C1201 831 1244 846 1285 859 C1250 798 1233 751 1233 717 C1233 653 1285 617 1353 617 C1391 617 1432 638 1473 679 C1483 708 1488 730 1488 745 C1488 801 1459 850 1402 893 C1427 900 1450 906 1472 910 L1577 1074 C1367 1021 1070 911 858 813 L838 620 C907 590 965 559 1012 528 C1139 444 1204 358 1209 270 C1144 183 934 139 578 139 C389 139 266 178 207 256 C189 280 180 312 180 352 C180 392 200 447 239 517 L239 517 Z M903 1016 L889 935 C913 947 942 961 977 976 C1218 1083 1377 1144 1453 1159 L1510 1256 C1495 1253 1474 1247 1449 1239 C1268 1182 1086 1107 903 1016 L903 1016 Z M1441 734 C1421 711 1390 700 1347 700 C1304 700 1282 714 1282 742 C1282 766 1299 801 1333 848 C1395 821 1431 783 1441 734 L1441 734 Z " />
<glyph glyph-name="uni06B1" unicode="&#x6b1;" horiz-adv-x="1468" d="M903 1016 L889 935 C913 947 942 961 977 976 C1218 1083 1377 1144 1453 1159 L1510 1256 C1495 1253 1474 1247 1449 1239 C1268 1182 1086 1107 903 1016 L903 1016 Z M239 517 C229 538 218 548 206 548 C194 548 187 547 186 546 C117 430 83 333 83 256 C83 135 167 53 334 10 C391 -5 467 -12 562 -12 C928 -12 1157 50 1249 173 C1262 220 1272 287 1280 375 C1273 403 1263 431 1248 459 C1200 548 1087 634 910 717 C943 735 1024 767 1154 814 C1284 861 1390 893 1472 910 L1577 1074 C1367 1021 1070 911 858 813 L838 620 C907 590 965 559 1012 528 C1139 444 1204 358 1209 270 C1144 183 934 139 578 139 C389 139 266 178 207 256 C189 280 180 312 180 352 C180 392 200 447 239 517 L239 517 Z M908 1333 L1004 1237 L1103 1333 L1004 1431 L908 1333 Z M1134 1333 L1230 1237 L1329 1333 L1230 1431 L1134 1333 Z " />
<glyph glyph-name="uni06B2" unicode="&#x6b2;" horiz-adv-x="1468" d="M903 1016 L889 935 C913 947 942 961 977 976 C1218 1083 1377 1144 1453 1159 L1510 1256 C1495 1253 1474 1247 1449 1239 C1268 1182 1086 1107 903 1016 L903 1016 Z M239 517 C229 538 218 548 206 548 C194 548 187 547 186 546 C117 430 83 333 83 256 C83 135 167 53 334 10 C391 -5 467 -12 562 -12 C928 -12 1157 50 1249 173 C1262 220 1272 287 1280 375 C1273 403 1263 431 1248 459 C1200 548 1087 634 910 717 C943 735 1024 767 1154 814 C1284 861 1390 893 1472 910 L1577 1074 C1367 1021 1070 911 858 813 L838 620 C907 590 965 559 1012 528 C1139 444 1204 358 1209 270 C1144 183 934 139 578 139 C389 139 266 178 207 256 C189 280 180 312 180 352 C180 392 200 447 239 517 L239 517 Z M402 -275 L498 -371 L597 -275 L498 -177 L402 -275 Z M628 -275 L724 -371 L823 -275 L724 -177 L628 -275 Z " />
<glyph glyph-name="uni06B3" unicode="&#x6b3;" horiz-adv-x="1468" d="M903 1016 L889 935 C913 947 942 961 977 976 C1218 1083 1377 1144 1453 1159 L1510 1256 C1495 1253 1474 1247 1449 1239 C1268 1182 1086 1107 903 1016 L903 1016 Z M239 517 C229 538 218 548 206 548 C194 548 187 547 186 546 C117 430 83 333 83 256 C83 135 167 53 334 10 C391 -5 467 -12 562 -12 C928 -12 1157 50 1249 173 C1262 220 1272 287 1280 375 C1273 403 1263 431 1248 459 C1200 548 1087 634 910 717 C943 735 1024 767 1154 814 C1284 861 1390 893 1472 910 L1577 1074 C1367 1021 1070 911 858 813 L838 620 C907 590 965 559 1012 528 C1139 444 1204 358 1209 270 C1144 183 934 139 578 139 C389 139 266 178 207 256 C189 280 180 312 180 352 C180 392 200 447 239 517 L239 517 Z M715 -254 L607 -146 L504 -265 L614 -375 L715 -254 Z M735 -496 L629 -388 L526 -505 L636 -615 L735 -496 Z " />
<glyph glyph-name="uni06B4" unicode="&#x6b4;" horiz-adv-x="1470" d="M903 1016 L889 935 C913 947 942 961 977 976 C1218 1083 1377 1144 1453 1159 L1510 1256 C1495 1253 1474 1247 1449 1239 C1268 1182 1086 1107 903 1016 L903 1016 Z M239 517 C229 538 218 548 206 548 C194 548 187 547 186 546 C117 430 83 333 83 256 C83 135 167 53 334 10 C391 -5 467 -12 562 -12 C928 -12 1157 50 1249 173 C1262 220 1272 287 1280 375 C1273 403 1263 431 1248 459 C1200 548 1087 634 910 717 C943 735 1024 767 1154 814 C1284 861 1390 893 1472 910 L1577 1074 C1367 1021 1070 911 858 813 L838 620 C907 590 965 559 1012 528 C1139 444 1204 358 1209 270 C1144 183 934 139 578 139 C389 139 266 178 207 256 C189 280 180 312 180 352 C180 392 200 447 239 517 L239 517 Z M1036 1410 L1132 1503 L1036 1601 L941 1503 L1036 1410 Z M1150 1213 L1245 1308 L1150 1406 L1055 1308 L1150 1213 Z M923 1213 L1018 1308 L923 1406 L826 1308 L923 1213 Z " />
<glyph glyph-name="uni06B5" unicode="&#x6b5;" horiz-adv-x="1083" d="M67 -208 C67 -287 98 -349 160 -394 C208 -430 302 -463 378 -463 L451 -463 C471 -463 501 -459 540 -452 C675 -427 792 -374 892 -294 C921 -231 947 -154 972 -63 C972 53 968 248 958 522 C948 796 941 962 937 1018 C958 1003 984 992 1013 987 C1000 1004 979 1043 951 1103 C921 1177 904 1223 899 1242 L798 1118 C818 1073 836 911 853 632 C870 353 879 89 881 -162 C744 -263 604 -313 459 -313 L450 -313 C257 -313 160 -245 160 -110 C160 -35 174 30 203 83 C190 104 172 115 150 115 C116 57 67 -118 67 -208 L67 -208 Z M993 1598 L904 1589 C877 1548 855 1484 840 1399 C821 1487 795 1549 763 1584 L672 1591 C749 1527 803 1422 827 1313 L851 1316 C881 1427 920 1525 993 1598 L993 1598 Z " />
<glyph glyph-name="uni06B6" unicode="&#x6b6;" horiz-adv-x="1083" d="M67 -208 C67 -287 98 -349 160 -394 C208 -430 302 -463 378 -463 L451 -463 C471 -463 501 -459 540 -452 C675 -427 792 -374 892 -294 C921 -231 947 -154 972 -63 C972 53 968 248 958 522 C948 796 941 962 937 1018 C958 1003 984 992 1013 987 C1000 1004 979 1043 951 1103 C921 1177 904 1223 899 1242 L798 1118 C818 1073 836 911 853 632 C870 353 879 89 881 -162 C744 -263 604 -313 459 -313 L450 -313 C257 -313 160 -245 160 -110 C160 -35 174 30 203 83 C190 104 172 115 150 115 C116 57 67 -118 67 -208 L67 -208 Z M816 1332 L924 1440 L805 1542 L695 1433 L816 1332 Z " />
<glyph glyph-name="uni06B7" unicode="&#x6b7;" horiz-adv-x="1083" d="M67 -208 C67 -287 98 -349 160 -394 C208 -430 302 -463 378 -463 L451 -463 C471 -463 501 -459 540 -452 C675 -427 792 -374 892 -294 C921 -231 947 -154 972 -63 C972 53 968 248 958 522 C948 796 941 962 937 1018 C958 1003 984 992 1013 987 C1000 1004 979 1043 951 1103 C921 1177 904 1223 899 1242 L798 1118 C818 1073 836 911 853 632 C870 353 879 89 881 -162 C744 -263 604 -313 459 -313 L450 -313 C257 -313 160 -245 160 -110 C160 -35 174 30 203 83 C190 104 172 115 150 115 C116 57 67 -118 67 -208 L67 -208 Z M870 1516 L966 1609 L870 1707 L775 1609 L870 1516 Z M984 1319 L1079 1414 L984 1512 L889 1414 L984 1319 Z M757 1319 L852 1414 L757 1512 L660 1414 L757 1319 Z " />
<glyph glyph-name="uni06B8" unicode="&#x6b8;" horiz-adv-x="1083" d="M67 -208 C67 -287 98 -349 160 -394 C208 -430 302 -463 378 -463 L451 -463 C471 -463 501 -459 540 -452 C675 -427 792 -374 892 -294 C921 -231 947 -154 972 -63 C972 53 968 248 958 522 C948 796 941 962 937 1018 C958 1003 984 992 1013 987 C1000 1004 979 1043 951 1103 C921 1177 904 1223 899 1242 L798 1118 C818 1073 836 911 853 632 C870 353 879 89 881 -162 C744 -263 604 -313 459 -313 L450 -313 C257 -313 160 -245 160 -110 C160 -35 174 30 203 83 C190 104 172 115 150 115 C116 57 67 -118 67 -208 L67 -208 Z M480 -953 L576 -857 L480 -762 L385 -857 L480 -953 Z M594 -758 L689 -662 L594 -567 L498 -662 L594 -758 Z M367 -758 L462 -662 L367 -567 L271 -662 L367 -758 Z " />
<glyph glyph-name="uni06B9" unicode="&#x6b9;" horiz-adv-x="1092" d="M501 -662 L609 -554 L490 -452 L380 -561 L501 -662 Z M975 20 L975 -2 C852 -118 650 -202 454 -205 C297 -205 184 -132 184 18 C184 109 229 238 267 301 C248 320 228 330 208 330 C116 173 70 45 70 -54 C70 -257 218 -355 423 -355 C609 -355 861 -269 989 -141 C1024 -52 1042 4 1044 26 C1046 48 1047 63 1047 69 L1047 101 C1047 256 1018 410 961 564 L874 378 C912 304 975 115 975 20 L975 20 Z " />
<glyph glyph-name="uni06BA" unicode="&#x6ba;" horiz-adv-x="1092" d="M975 20 L975 -2 C852 -118 650 -202 454 -205 C297 -205 184 -132 184 18 C184 109 229 238 267 301 C248 320 228 330 208 330 C116 173 70 45 70 -54 C70 -257 218 -355 423 -355 C609 -355 861 -269 989 -141 C1024 -52 1042 4 1044 26 C1046 48 1047 63 1047 69 L1047 101 C1047 256 1018 410 961 564 L874 378 C912 304 975 115 975 20 L975 20 Z " />
<glyph glyph-name="uni06BB" unicode="&#x6bb;" horiz-adv-x="1092" d="M975 20 L975 -2 C852 -118 650 -202 454 -205 C297 -205 184 -132 184 18 C184 109 229 238 267 301 C248 320 228 330 208 330 C116 173 70 45 70 -54 C70 -257 218 -355 423 -355 C609 -355 861 -269 989 -141 C1024 -52 1042 4 1044 26 C1046 48 1047 63 1047 69 L1047 101 C1047 256 1018 410 961 564 L874 378 C912 304 975 115 975 20 L975 20 Z M741 655 C741 695 701 732 660 732 C638 732 615 725 592 712 C569 699 541 673 507 635 C507 659 508 680 508 698 L508 764 C508 789 506 817 503 847 C508 843 516 840 527 837 C523 841 518 851 512 866 C502 890 493 899 490 920 L458 879 C472 846 479 781 479 686 L478 604 C444 604 419 607 403 612 C420 593 443 574 471 557 L508 557 C631 557 690 580 741 655 L741 655 Z M704 637 C676 614 629 603 564 603 L504 603 C558 663 604 693 642 693 C671 693 704 665 704 637 L704 637 Z " />
<glyph glyph-name="uni06BC" unicode="&#x6bc;" horiz-adv-x="1092" d="M475 -574 C513 -574 554 -553 595 -512 C605 -483 610 -461 610 -446 C610 -408 596 -372 569 -340 C725 -310 892 -238 989 -141 C1024 -52 1042 4 1044 26 C1046 48 1047 63 1047 69 L1047 101 C1047 256 1018 410 961 564 L874 378 C912 304 975 115 975 20 L975 -2 C852 -118 650 -202 454 -205 C297 -205 184 -132 184 18 C184 109 229 238 267 301 C248 320 228 330 208 330 C116 173 70 45 70 -54 C70 -247 204 -346 394 -354 C368 -405 355 -444 355 -474 C355 -538 407 -574 475 -574 L475 -574 Z M476 -353 C525 -379 554 -414 563 -457 C543 -480 512 -491 469 -491 C426 -491 404 -477 404 -449 C404 -427 418 -396 447 -355 C456 -354 466 -354 476 -353 L476 -353 Z " />
<glyph glyph-name="uni06BD" unicode="&#x6bd;" horiz-adv-x="1092" d="M975 20 L975 -2 C852 -118 650 -202 454 -205 C297 -205 184 -132 184 18 C184 109 229 238 267 301 C248 320 228 330 208 330 C116 173 70 45 70 -54 C70 -257 218 -355 423 -355 C609 -355 861 -269 989 -141 C1024 -52 1042 4 1044 26 C1046 48 1047 63 1047 69 L1047 101 C1047 256 1018 410 961 564 L874 378 C912 304 975 115 975 20 L975 20 Z M579 739 L675 832 L579 930 L484 832 L579 739 Z M693 542 L788 637 L693 735 L598 637 L693 542 Z M466 542 L561 637 L466 735 L369 637 L466 542 Z " />
<glyph glyph-name="uni06BE" unicode="&#x6be;" horiz-adv-x="982" d="M291 302 C291 240 309 196 345 170 C281 126 224 122 56 119 C70 76 94 0 140 0 L174 0 C189 0 207 3 228 8 C325 31 405 62 468 99 C492 88 555 71 657 48 C749 33 815 25 854 22 C887 66 956 182 956 245 L956 250 C955 305 921 362 855 423 C782 494 627 609 388 766 L355 598 L426 566 C350 532 291 416 291 302 L291 302 Z M606 187 C663 225 691 278 691 346 C691 376 688 400 682 418 L686 422 C743 384 789 343 824 299 C859 255 877 220 877 196 C877 172 869 154 854 143 C777 144 695 159 606 187 L606 187 Z M488 222 C433 236 377 277 369 328 C369 426 439 500 542 502 C595 471 621 427 621 371 C621 293 555 240 488 222 L488 222 Z " />
<glyph glyph-name="uni06BF" unicode="&#x6bf;" horiz-adv-x="1011" d="M208 -81 C208 36 276 141 411 236 C541 329 683 378 836 382 L901 519 C863 508 814 502 755 502 C696 502 549 536 316 603 C281 613 264 618 263 618 C229 618 200 593 175 542 L99 384 C113 372 131 366 153 366 C186 442 213 480 236 480 C255 480 294 470 352 450 C410 430 485 413 578 399 L578 395 C434 344 312 271 214 176 C116 81 67 -26 67 -145 C67 -264 119 -357 222 -424 C325 -491 446 -524 586 -524 C726 -524 828 -510 889 -483 L984 -370 C916 -393 816 -404 686 -404 C458 -404 208 -295 208 -81 L208 -81 Z M641 -269 L737 -173 L641 -78 L546 -173 L641 -269 Z M755 -74 L850 22 L755 117 L659 22 L755 -74 Z M528 -74 L623 22 L528 117 L432 22 L528 -74 Z M550 720 L658 828 L539 930 L429 821 L550 720 Z " />
<glyph glyph-name="uni06C0" unicode="&#x6c0;" horiz-adv-x="638" d="M280 -11 C340 -11 409 11 487 55 C524 120 548 182 561 241 C557 386 453 509 249 612 C136 399 79 245 79 150 C79 47 172 -11 280 -11 L280 -11 Z M167 216 C167 243 179 286 203 344 L251 451 C325 416 384 372 429 317 C465 270 483 226 483 186 C439 147 373 128 286 128 C230 128 167 160 167 216 L167 216 Z M341 949 L393 991 C369 1028 340 1047 307 1047 C253 1047 198 1005 142 922 C142 874 168 841 221 823 L221 820 C195 814 164 801 128 782 L128 719 C145 730 183 747 239 773 C295 799 350 815 403 822 L425 895 C380 888 337 874 299 863 C252 865 218 887 198 928 C225 965 250 983 273 983 C296 983 318 972 341 949 L341 949 Z " />
<glyph glyph-name="uni06C1" unicode="&#x6c1;" horiz-adv-x="735" d="M430 310 C456 198 491 118 535 71 C579 24 640 0 718 0 L745 0 C762 0 771 8 771 24 L771 110 C771 129 762 139 745 139 L716 139 C625 139 589 168 550 230 C528 265 506 344 485 466 C334 425 212 360 120 271 L75 107 C78 101 85 98 97 98 C153 196 328 287 430 310 L430 310 Z " />
<glyph glyph-name="uni06C2" unicode="&#x6c2;" horiz-adv-x="735" d="M430 310 C456 198 491 118 535 71 C579 24 640 0 718 0 L745 0 C762 0 771 8 771 24 L771 110 C771 129 762 139 745 139 L716 139 C625 139 589 168 550 230 C528 265 506 344 485 466 C334 425 212 360 120 271 L75 107 C78 101 85 98 97 98 C153 196 328 287 430 310 L430 310 Z M364 787 L416 829 C392 866 363 885 330 885 C276 885 221 843 165 760 C165 712 191 679 244 661 L244 658 C218 652 187 639 151 620 L151 557 C168 568 206 585 262 611 C318 637 373 653 426 660 L448 733 C403 726 360 712 322 701 C275 703 241 725 221 766 C248 803 273 821 296 821 C319 821 341 810 364 787 L364 787 Z " />
<glyph glyph-name="uni06C3" unicode="&#x6c3;" horiz-adv-x="735" d="M430 310 C456 198 491 118 535 71 C579 24 640 0 718 0 L745 0 C762 0 771 8 771 24 L771 110 C771 129 762 139 745 139 L716 139 C625 139 589 168 550 230 C528 265 506 344 485 466 C334 425 212 360 120 271 L75 107 C78 101 85 98 97 98 C153 196 328 287 430 310 L430 310 Z M72 687 L168 591 L267 687 L168 785 L72 687 Z M298 687 L394 591 L493 687 L394 785 L298 687 Z " />
<glyph glyph-name="uni06C4" unicode="&#x6c4;" horiz-adv-x="643" d="M251 179 C251 254 277 315 330 361 C353 358 374 350 394 338 C414 326 439 304 466 272 C493 240 506 203 506 160 C483 146 446 139 394 139 C342 139 294 152 251 179 L251 179 Z M587 106 C587 329 510 462 355 506 C226 433 158 305 153 121 C153 104 155 82 160 55 C172 49 200 38 244 23 C288 8 335 0 384 0 C433 0 474 9 506 26 C502 -16 488 -58 464 -101 C391 -234 248 -350 36 -451 C100 -495 172 -519 253 -524 C259 -519 266 -513 272 -508 C251 -550 241 -585 241 -611 C241 -675 293 -711 361 -711 C399 -711 440 -690 481 -649 C491 -620 496 -598 496 -583 C496 -516 455 -459 373 -410 C485 -286 553 -149 576 0 C583 41 587 76 587 106 L587 106 Z M449 -594 C429 -617 398 -628 355 -628 C312 -628 290 -614 290 -586 C290 -562 307 -527 341 -480 C403 -507 439 -545 449 -594 L449 -594 Z " />
</font>
</svg>
